<svg width="27" height="28" viewBox="0 0 27 28" fill="none" xmlns="http://www.w3.org/2000/svg">
<path d="M9.58388 13.7161C9.09573 13.228 8.30427 13.228 7.81612 13.7161C7.32796 14.2043 7.32796 14.9957 7.81612 15.4839L9.58388 13.7161ZM12.3 18.2L11.4161 19.0839C11.6645 19.3322 12.0058 19.4646 12.3566 19.4487C12.7075 19.4328 13.0354 19.27 13.2603 19.0002L12.3 18.2ZM19.2603 11.8002C19.7022 11.2699 19.6306 10.4817 19.1002 10.0397C18.5699 9.59777 17.7817 9.66942 17.3397 10.1998L19.2603 11.8002ZM7.81612 15.4839L11.4161 19.0839L13.1839 17.3161L9.58388 13.7161L7.81612 15.4839ZM13.2603 19.0002L19.2603 11.8002L17.3397 10.1998L11.3397 17.3998L13.2603 19.0002ZM24.25 14C24.25 19.9371 19.4371 24.75 13.5 24.75V27.25C20.8178 27.25 26.75 21.3178 26.75 14H24.25ZM13.5 24.75C7.56294 24.75 2.75 19.9371 2.75 14H0.25C0.25 21.3178 6.18223 27.25 13.5 27.25V24.75ZM2.75 14C2.75 8.06294 7.56294 3.25 13.5 3.25V0.75C6.18223 0.75 0.25 6.68223 0.25 14H2.75ZM13.5 3.25C19.4371 3.25 24.25 8.06294 24.25 14H26.75C26.75 6.68223 20.8178 0.75 13.5 0.75V3.25Z" fill="#2DD705"/>
</svg>
