<svg width="248" height="85" viewBox="0 0 248 85" fill="none" xmlns="http://www.w3.org/2000/svg">
<path fill-rule="evenodd" clip-rule="evenodd" d="M40.0937 50.9792L15.5649 16.7307C13.7113 14.1427 9.44058 25.0271 12.4048 30.2354L24.3711 51.2609C25.8207 53.1936 24.1129 55.3266 23.5066 55.5944L3.07108 72.9911C-2.15769 77.4423 0.906003 82.6427 5.54343 83.8373L37.8792 62.5151C41.7134 59.9868 42.4526 54.2729 40.0935 50.9791L40.0937 50.9792Z" stroke="#FEFEFE" stroke-width="0.665893" stroke-miterlimit="2.61313"/>
<path fill-rule="evenodd" clip-rule="evenodd" d="M14.5114 28.347L55.4404 0.546625C58.5333 -1.55412 58.8256 12.1755 53.4457 16.7139L31.7272 35.0351C29.3457 36.5774 30.3626 39.6212 30.9221 40.1625L46.3905 67.6271C50.3483 74.6544 44.862 79.1437 39.2658 78.5794L12.2729 41.9608C9.07232 37.6188 10.5754 31.0208 14.5116 28.3472L14.5114 28.347Z" stroke="#FEFEFE" stroke-width="0.665893" stroke-miterlimit="2.61313"/>
<path d="M70.8838 30.5298C70.787 29.5539 70.3717 28.7958 69.6378 28.2555C68.9039 27.7151 67.9079 27.445 66.6498 27.445C65.7949 27.445 65.0731 27.5659 64.4844 27.8079C63.8957 28.0418 63.444 28.3684 63.1295 28.7878C62.823 29.2071 62.6698 29.683 62.6698 30.2152C62.6537 30.6588 62.7464 31.0459 62.9481 31.3766C63.1577 31.7072 63.444 31.9935 63.807 32.2355C64.1699 32.4693 64.5892 32.675 65.0651 32.8524C65.5409 33.0218 66.049 33.1669 66.5893 33.2879L68.8152 33.8202C69.8959 34.0621 70.8878 34.3847 71.7911 34.788C72.6944 35.1912 73.4766 35.6872 74.138 36.2759C74.7993 36.8647 75.3114 37.5582 75.6743 38.3566C76.0453 39.1551 76.2348 40.0704 76.2429 41.1027C76.2348 42.6189 75.8477 43.9335 75.0815 45.0464C74.3234 46.1513 73.2266 47.0102 71.7911 47.6231C70.3636 48.228 68.6418 48.5304 66.6256 48.5304C64.6255 48.5304 62.8835 48.2239 61.3996 47.611C59.9238 46.9981 58.7705 46.0908 57.9398 44.8891C57.1172 43.6794 56.6857 42.1834 56.6454 40.4011H61.7141C61.7706 41.2317 62.0085 41.9253 62.4279 42.4818C62.8553 43.0302 63.4239 43.4455 64.1336 43.7278C64.8513 44.002 65.6619 44.1391 66.5651 44.1391C67.4522 44.1391 68.2224 44.0101 68.8757 43.752C69.537 43.4939 70.0491 43.135 70.412 42.6753C70.7749 42.2156 70.9564 41.6874 70.9564 41.0906C70.9564 40.5341 70.7911 40.0664 70.4604 39.6873C70.1378 39.3083 69.662 38.9857 69.0329 38.7196C68.4119 38.4534 67.6498 38.2115 66.7466 37.9937L64.0489 37.3163C61.9601 36.8082 60.3109 36.0138 59.1011 34.9331C57.8914 33.8525 57.2906 32.3968 57.2987 30.5661C57.2906 29.066 57.6898 27.7555 58.4963 26.6345C59.3108 25.5135 60.4278 24.6384 61.8472 24.0094C63.2666 23.3803 64.8796 23.0658 66.6861 23.0658C68.5249 23.0658 70.1298 23.3803 71.5008 24.0094C72.8798 24.6384 73.9525 25.5135 74.7186 26.6345C75.4848 27.7555 75.88 29.0539 75.9041 30.5298H70.8838ZM79.7662 48.1796V23.4045H89.5407C91.4117 23.4045 93.0086 23.7392 94.3312 24.4086C95.6619 25.0699 96.674 26.0094 97.3676 27.2272C98.0692 28.4369 98.42 29.8604 98.42 31.4975C98.42 33.1428 98.0652 34.5581 97.3555 35.7436C96.6458 36.9211 95.6175 37.8244 94.2707 38.4534C92.932 39.0825 91.3109 39.397 89.4076 39.397H82.8631V35.1872H88.5608C89.5609 35.1872 90.3915 35.0501 91.0529 34.7759C91.7142 34.5017 92.2061 34.0904 92.5287 33.542C92.8594 32.9936 93.0247 32.3121 93.0247 31.4975C93.0247 30.6749 92.8594 29.9814 92.5287 29.4168C92.2061 28.8523 91.7101 28.4248 91.0408 28.1345C90.3794 27.8361 89.5447 27.6869 88.5366 27.6869H85.0043V48.1796H79.7662ZM93.1457 36.905L99.3031 48.1796H93.5207L87.4963 36.905H93.1457ZM102.122 48.1796V23.4045H118.816V27.7232H107.36V33.6266H117.957V37.9453H107.36V43.8609H118.864V48.1796H102.122ZM128.557 48.1796L121.468 23.4045H127.19L131.291 40.6188H131.497L136.021 23.4045H140.921L145.433 40.6551H145.651L149.751 23.4045H155.473L148.384 48.1796H143.279L138.562 31.9814H138.368L133.662 48.1796H128.557ZM157.333 27.7232V23.4045H177.681V27.7232H170.096V48.1796H164.918V27.7232H157.333ZM181.032 48.1796V23.4045H197.726V27.7232H186.27V33.6266H196.867V37.9453H186.27V43.8609H197.774V48.1796H181.032ZM223.75 32.0782H218.451C218.355 31.3927 218.157 30.7838 217.859 30.2515C217.56 29.7112 217.177 29.2515 216.709 28.8724C216.242 28.4934 215.701 28.2031 215.088 28.0014C214.484 27.7998 213.826 27.699 213.117 27.699C211.834 27.699 210.717 28.0176 209.766 28.6547C208.814 29.2837 208.076 30.2031 207.552 31.4129C207.028 32.6145 206.766 34.0742 206.766 35.792C206.766 37.5582 207.028 39.0422 207.552 40.2438C208.084 41.4455 208.826 42.3528 209.778 42.9657C210.729 43.5786 211.83 43.8851 213.08 43.8851C213.782 43.8851 214.431 43.7923 215.028 43.6068C215.633 43.4213 216.169 43.1512 216.637 42.7963C217.105 42.4334 217.492 41.9939 217.798 41.4777C218.113 40.9616 218.33 40.3728 218.451 39.7115L223.75 39.7357C223.613 40.8729 223.27 41.9697 222.722 43.0262C222.181 44.0746 221.452 45.0141 220.532 45.8448C219.621 46.6674 218.532 47.3207 217.266 47.8046C216.008 48.2804 214.584 48.5183 212.996 48.5183C210.786 48.5183 208.81 48.0183 207.068 47.0182C205.334 46.0182 203.963 44.5706 202.955 42.6753C201.955 40.7801 201.455 38.4857 201.455 35.792C201.455 33.0903 201.963 30.7919 202.979 28.8966C203.995 27.0014 205.374 25.5578 207.116 24.5658C208.858 23.5658 210.818 23.0658 212.996 23.0658C214.431 23.0658 215.762 23.2674 216.988 23.6707C218.222 24.0739 219.314 24.6626 220.266 25.4368C221.218 26.203 221.992 27.1425 222.589 28.2555C223.194 29.3684 223.581 30.6427 223.75 32.0782ZM227.506 48.1796V23.4045H232.744V33.6266H243.378V23.4045H248.604V48.1796H243.378V37.9453H232.744V48.1796H227.506Z" fill="#FEFEFE"/>
<path d="M56.5875 70.9382V59.4122H63.4986V60.6503H57.9832V64.5449H62.9809V65.783H57.9832V70.9382H56.5875ZM65.709 70.9382V62.2937H67.0372V70.9382H65.709ZM66.3844 60.8529C66.1255 60.8529 65.9023 60.7648 65.7147 60.5884C65.5308 60.4121 65.4389 60.2001 65.4389 59.9525C65.4389 59.7048 65.5308 59.4928 65.7147 59.3165C65.9023 59.1401 66.1255 59.052 66.3844 59.052C66.6433 59.052 66.8646 59.1401 67.0485 59.3165C67.2361 59.4928 67.3299 59.7048 67.3299 59.9525C67.3299 60.2001 67.2361 60.4121 67.0485 60.5884C66.8646 60.7648 66.6433 60.8529 66.3844 60.8529ZM70.7981 65.738V70.9382H69.4699V62.2937H70.7531V63.6444H70.8656C71.0683 63.2054 71.3759 62.8527 71.7886 62.5863C72.2013 62.3162 72.7341 62.1811 73.387 62.1811C73.9723 62.1811 74.4844 62.3012 74.9234 62.5413C75.3624 62.7777 75.7038 63.1379 75.9477 63.6219C76.1916 64.1021 76.3135 64.71 76.3135 65.4453V70.9382H74.9853V65.5354C74.9853 64.8563 74.809 64.3273 74.4563 63.9483C74.1036 63.5656 73.6196 63.3743 73.0043 63.3743C72.5803 63.3743 72.2013 63.4662 71.8674 63.65C71.5373 63.8339 71.2765 64.1021 71.0851 64.4548C70.8938 64.8075 70.7981 65.2352 70.7981 65.738ZM82.0048 71.1183C81.2844 71.1183 80.6485 70.9364 80.0969 70.5724C79.5454 70.2047 79.1139 69.6869 78.8025 69.0191C78.4911 68.3475 78.3354 67.554 78.3354 66.6385C78.3354 65.7305 78.4911 64.9426 78.8025 64.2747C79.1139 63.6069 79.5472 63.091 80.1025 62.727C80.6578 62.3631 81.2994 62.1811 82.0273 62.1811C82.5901 62.1811 83.0347 62.2749 83.3611 62.4625C83.6913 62.6464 83.9427 62.8565 84.1153 63.0929C84.2916 63.3255 84.4286 63.5168 84.5261 63.6669H84.6387V59.4122H85.9669V70.9382H84.6837V69.61H84.5261C84.4286 69.7676 84.2897 69.9665 84.1096 70.2066C83.9296 70.443 83.6725 70.655 83.3386 70.8426C83.0047 71.0264 82.5601 71.1183 82.0048 71.1183ZM82.1849 69.9252C82.7177 69.9252 83.1679 69.7864 83.5356 69.5087C83.9033 69.2273 84.1828 68.839 84.3742 68.3437C84.5655 67.8447 84.6612 67.2688 84.6612 66.616C84.6612 65.9706 84.5674 65.4059 84.3798 64.9219C84.1922 64.4342 83.9145 64.0552 83.5469 63.7851C83.1792 63.5112 82.7252 63.3743 82.1849 63.3743C81.6221 63.3743 81.1531 63.5187 80.7779 63.8076C80.4064 64.0928 80.1269 64.4811 79.9393 64.9726C79.7555 65.4603 79.6636 66.0081 79.6636 66.616C79.6636 67.2313 79.7574 67.7903 79.945 68.2931C80.1363 68.7921 80.4177 69.1898 80.7892 69.4862C81.1643 69.7789 81.6296 69.9252 82.1849 69.9252ZM92.2308 59.4122H93.8291L97.0258 64.7925H97.1609L100.358 59.4122H101.956L97.7912 66.1882V70.9382H96.3955V66.1882L92.2308 59.4122ZM105.87 71.1183C105.09 71.1183 104.405 70.9326 103.816 70.5612C103.231 70.1897 102.773 69.6701 102.443 69.0022C102.116 68.3344 101.953 67.554 101.953 66.661C101.953 65.7605 102.116 64.9745 102.443 64.3029C102.773 63.6313 103.231 63.1097 103.816 62.7383C104.405 62.3668 105.09 62.1811 105.87 62.1811C106.651 62.1811 107.333 62.3668 107.919 62.7383C108.508 63.1097 108.966 63.6313 109.292 64.3029C109.622 64.9745 109.787 65.7605 109.787 66.661C109.787 67.554 109.622 68.3344 109.292 69.0022C108.966 69.6701 108.508 70.1897 107.919 70.5612C107.333 70.9326 106.651 71.1183 105.87 71.1183ZM105.87 69.9252C106.463 69.9252 106.951 69.7732 107.333 69.4693C107.716 69.1654 107.999 68.7658 108.183 68.2706C108.367 67.7753 108.459 67.2388 108.459 66.661C108.459 66.0832 108.367 65.5448 108.183 65.0458C107.999 64.5467 107.716 64.1434 107.333 63.8357C106.951 63.5281 106.463 63.3743 105.87 63.3743C105.277 63.3743 104.79 63.5281 104.407 63.8357C104.024 64.1434 103.741 64.5467 103.557 65.0458C103.373 65.5448 103.281 66.0832 103.281 66.661C103.281 67.2388 103.373 67.7753 103.557 68.2706C103.741 68.7658 104.024 69.1654 104.407 69.4693C104.79 69.7732 105.277 69.9252 105.87 69.9252ZM117.263 67.4039V62.2937H118.591V70.9382H117.263V69.475H117.173C116.97 69.9139 116.655 70.2873 116.227 70.5949C115.799 70.8988 115.259 71.0508 114.606 71.0508C114.066 71.0508 113.586 70.9326 113.165 70.6962C112.745 70.4561 112.415 70.0959 112.175 69.6157C111.935 69.1317 111.815 68.522 111.815 67.7866V62.2937H113.143V67.6965C113.143 68.3269 113.319 68.8296 113.672 69.2048C114.028 69.58 114.482 69.7676 115.034 69.7676C115.364 69.7676 115.7 69.6832 116.041 69.5144C116.386 69.3455 116.675 69.0866 116.908 68.7377C117.144 68.3888 117.263 67.9442 117.263 67.4039ZM121.023 70.9382V62.2937H122.307V63.5994H122.397C122.554 63.1716 122.839 62.8246 123.252 62.5582C123.665 62.2918 124.13 62.1586 124.648 62.1586C124.745 62.1586 124.867 62.1605 125.014 62.1642C125.16 62.168 125.271 62.1736 125.346 62.1811V63.5318C125.301 63.5206 125.198 63.5037 125.036 63.4812C124.879 63.4549 124.712 63.4418 124.535 63.4418C124.115 63.4418 123.74 63.53 123.41 63.7063C123.083 63.8789 122.824 64.119 122.633 64.4267C122.445 64.7306 122.352 65.0776 122.352 65.4679V70.9382H121.023ZM131.558 70.9382V59.4122H135.587C136.39 59.4122 137.052 59.551 137.574 59.8286C138.095 60.1025 138.484 60.4721 138.739 60.9373C138.994 61.3988 139.122 61.911 139.122 62.4738C139.122 62.969 139.033 63.378 138.857 63.7007C138.684 64.0233 138.456 64.2785 138.17 64.4661C137.889 64.6537 137.583 64.7925 137.253 64.8825V64.9951C137.606 65.0176 137.96 65.1414 138.317 65.3666C138.673 65.5917 138.971 65.9143 139.212 66.3346C139.452 66.7548 139.572 67.2688 139.572 67.8766C139.572 68.4544 139.44 68.9741 139.178 69.4356C138.915 69.8971 138.501 70.2629 137.934 70.533C137.368 70.8032 136.63 70.9382 135.722 70.9382H131.558ZM132.953 69.7001H135.722C136.634 69.7001 137.281 69.5237 137.664 69.1711C138.05 68.8146 138.244 68.3831 138.244 67.8766C138.244 67.4864 138.144 67.1262 137.945 66.7961C137.746 66.4621 137.463 66.1957 137.095 65.9969C136.728 65.7943 136.293 65.693 135.79 65.693H132.953V69.7001ZM132.953 64.4773H135.542C135.962 64.4773 136.341 64.3948 136.679 64.2297C137.02 64.0646 137.291 63.832 137.489 63.5318C137.692 63.2317 137.793 62.879 137.793 62.4738C137.793 61.9673 137.617 61.5377 137.264 61.185C136.912 60.8285 136.353 60.6503 135.587 60.6503H132.953V64.4773ZM145.31 71.1183C144.477 71.1183 143.758 70.9345 143.154 70.5668C142.554 70.1953 142.09 69.6776 141.764 69.0135C141.441 68.3456 141.28 67.569 141.28 66.6835C141.28 65.798 141.441 65.0176 141.764 64.3423C142.09 63.6632 142.544 63.1341 143.126 62.7552C143.711 62.3725 144.394 62.1811 145.174 62.1811C145.625 62.1811 146.069 62.2562 146.508 62.4062C146.947 62.5563 147.347 62.8002 147.707 63.1379C148.067 63.4718 148.354 63.9145 148.568 64.4661C148.782 65.0176 148.889 65.6967 148.889 66.5034V67.0662H142.225V65.9181H147.538C147.538 65.4303 147.441 64.9951 147.246 64.6124C147.054 64.2297 146.78 63.9277 146.424 63.7063C146.071 63.4849 145.655 63.3743 145.174 63.3743C144.645 63.3743 144.188 63.5056 143.801 63.7682C143.419 64.0271 143.124 64.3648 142.918 64.7812C142.711 65.1977 142.608 65.6442 142.608 66.1207V66.8861C142.608 67.5389 142.721 68.0924 142.946 68.5463C143.175 68.9966 143.492 69.3399 143.897 69.5763C144.302 69.8089 144.773 69.9252 145.31 69.9252C145.658 69.9252 145.974 69.8764 146.255 69.7789C146.54 69.6776 146.786 69.5275 146.992 69.3286C147.199 69.126 147.358 68.8746 147.471 68.5745L148.754 68.9347C148.619 69.3699 148.392 69.7526 148.073 70.0828C147.754 70.4092 147.36 70.6643 146.891 70.8482C146.422 71.0283 145.895 71.1183 145.31 71.1183ZM157.033 64.2297L155.839 64.5674C155.764 64.3685 155.654 64.1753 155.507 63.9877C155.365 63.7963 155.17 63.6388 154.922 63.515C154.674 63.3911 154.357 63.3292 153.971 63.3292C153.442 63.3292 153.001 63.4512 152.648 63.695C152.299 63.9352 152.125 64.241 152.125 64.6124C152.125 64.9426 152.245 65.2033 152.485 65.3947C152.725 65.586 153.1 65.7455 153.611 65.8731L154.894 66.1882C155.667 66.3758 156.243 66.6629 156.622 67.0493C157.001 67.432 157.19 67.9254 157.19 68.5295C157.19 69.0247 157.048 69.4675 156.762 69.8577C156.481 70.2479 156.087 70.5555 155.581 70.7806C155.074 71.0058 154.485 71.1183 153.813 71.1183C152.932 71.1183 152.202 70.927 151.624 70.5443C151.046 70.1616 150.68 69.6025 150.527 68.8671L151.787 68.552C151.907 69.0172 152.134 69.3662 152.468 69.5988C152.806 69.8314 153.247 69.9477 153.791 69.9477C154.41 69.9477 154.901 69.8164 155.265 69.5538C155.633 69.2874 155.817 68.9684 155.817 68.597C155.817 68.2968 155.712 68.0455 155.502 67.8429C155.292 67.6365 154.969 67.4827 154.534 67.3814L153.093 67.0437C152.301 66.8561 151.72 66.5653 151.348 66.1713C150.981 65.7736 150.797 65.2765 150.797 64.6799C150.797 64.1922 150.934 63.7607 151.208 63.3855C151.485 63.0103 151.862 62.7158 152.339 62.5019C152.819 62.2881 153.363 62.1811 153.971 62.1811C154.826 62.1811 155.498 62.3687 155.986 62.7439C156.477 63.1191 156.826 63.6144 157.033 64.2297ZM162.949 62.2937V63.4193H158.469V62.2937H162.949ZM159.775 60.2226H161.103V68.4619C161.103 68.8371 161.157 69.1185 161.266 69.3061C161.379 69.49 161.521 69.6138 161.694 69.6776C161.87 69.7376 162.056 69.7676 162.251 69.7676C162.397 69.7676 162.517 69.7601 162.611 69.7451C162.705 69.7263 162.78 69.7113 162.836 69.7001L163.107 70.8932C163.016 70.927 162.891 70.9607 162.729 70.9945C162.568 71.032 162.364 71.0508 162.116 71.0508C161.741 71.0508 161.373 70.9701 161.013 70.8088C160.656 70.6475 160.36 70.4017 160.124 70.0715C159.891 69.7414 159.775 69.3249 159.775 68.8221V60.2226ZM175.888 62.2937C175.82 61.7234 175.546 61.2806 175.066 60.9655C174.586 60.6503 173.997 60.4927 173.299 60.4927C172.789 60.4927 172.342 60.5753 171.959 60.7404C171.58 60.9055 171.284 61.1324 171.07 61.4213C170.86 61.7103 170.755 62.0385 170.755 62.4062C170.755 62.7139 170.828 62.9784 170.974 63.1998C171.125 63.4174 171.316 63.5994 171.548 63.7457C171.781 63.8883 172.025 64.0065 172.28 64.1003C172.535 64.1903 172.77 64.2635 172.984 64.3197L174.154 64.6349C174.454 64.7137 174.788 64.8225 175.156 64.9613C175.527 65.1002 175.882 65.2896 176.22 65.5298C176.561 65.7661 176.843 66.07 177.064 66.4415C177.285 66.8129 177.396 67.2688 177.396 67.8091C177.396 68.4319 177.233 68.9947 176.906 69.4975C176.584 70.0002 176.111 70.3998 175.488 70.6962C174.869 70.9926 174.117 71.1408 173.231 71.1408C172.406 71.1408 171.691 71.0076 171.087 70.7413C170.487 70.4749 170.014 70.1034 169.669 69.6269C169.327 69.1504 169.134 68.597 169.089 67.9667H170.53C170.567 68.4019 170.714 68.7621 170.969 69.0472C171.228 69.3286 171.554 69.5387 171.948 69.6776C172.346 69.8126 172.773 69.8802 173.231 69.8802C173.764 69.8802 174.242 69.7939 174.666 69.6213C175.09 69.4449 175.426 69.2011 175.674 68.8897C175.921 68.5745 176.045 68.2068 176.045 67.7866C176.045 67.4039 175.938 67.0925 175.724 66.8523C175.511 66.6122 175.229 66.4171 174.88 66.267C174.531 66.1169 174.154 65.9856 173.749 65.8731L172.331 65.4679C171.43 65.209 170.717 64.8394 170.192 64.3591C169.667 63.8789 169.404 63.2504 169.404 62.4738C169.404 61.8284 169.579 61.2656 169.928 60.7854C170.28 60.3014 170.753 59.9262 171.346 59.6598C171.942 59.3897 172.608 59.2546 173.344 59.2546C174.087 59.2546 174.747 59.3878 175.325 59.6542C175.903 59.9168 176.36 60.277 176.698 60.7347C177.039 61.1925 177.22 61.7121 177.238 62.2937H175.888ZM183.022 71.1183C182.242 71.1183 181.557 70.9326 180.968 70.5612C180.383 70.1897 179.925 69.6701 179.595 69.0022C179.269 68.3344 179.105 67.554 179.105 66.661C179.105 65.7605 179.269 64.9745 179.595 64.3029C179.925 63.6313 180.383 63.1097 180.968 62.7383C181.557 62.3668 182.242 62.1811 183.022 62.1811C183.803 62.1811 184.486 62.3668 185.071 62.7383C185.66 63.1097 186.118 63.6313 186.444 64.3029C186.774 64.9745 186.94 65.7605 186.94 66.661C186.94 67.554 186.774 68.3344 186.444 69.0022C186.118 69.6701 185.66 70.1897 185.071 70.5612C184.486 70.9326 183.803 71.1183 183.022 71.1183ZM183.022 69.9252C183.615 69.9252 184.103 69.7732 184.486 69.4693C184.868 69.1654 185.152 68.7658 185.336 68.2706C185.519 67.7753 185.611 67.2388 185.611 66.661C185.611 66.0832 185.519 65.5448 185.336 65.0458C185.152 64.5467 184.868 64.1434 184.486 63.8357C184.103 63.5281 183.615 63.3743 183.022 63.3743C182.43 63.3743 181.942 63.5281 181.559 63.8357C181.177 64.1434 180.893 64.5467 180.709 65.0458C180.526 65.5448 180.434 66.0832 180.434 66.661C180.434 67.2388 180.526 67.7753 180.709 68.2706C180.893 68.7658 181.177 69.1654 181.559 69.4693C181.942 69.7732 182.43 69.9252 183.022 69.9252ZM190.295 59.4122V70.9382H188.967V59.4122H190.295ZM198.176 67.4039V62.2937H199.504V70.9382H198.176V69.475H198.086C197.883 69.9139 197.568 70.2873 197.14 70.5949C196.713 70.8988 196.172 71.0508 195.519 71.0508C194.979 71.0508 194.499 70.9326 194.079 70.6962C193.658 70.4561 193.328 70.0959 193.088 69.6157C192.848 69.1317 192.728 68.522 192.728 67.7866V62.2937H194.056V67.6965C194.056 68.3269 194.232 68.8296 194.585 69.2048C194.942 69.58 195.396 69.7676 195.947 69.7676C196.277 69.7676 196.613 69.6832 196.955 69.5144C197.3 69.3455 197.589 69.0866 197.821 68.7377C198.058 68.3888 198.176 67.9442 198.176 67.4039ZM205.696 62.2937V63.4193H201.216V62.2937H205.696ZM202.522 60.2226H203.85V68.4619C203.85 68.8371 203.905 69.1185 204.013 69.3061C204.126 69.49 204.269 69.6138 204.441 69.6776C204.617 69.7376 204.803 69.7676 204.998 69.7676C205.145 69.7676 205.265 69.7601 205.358 69.7451C205.452 69.7263 205.527 69.7113 205.584 69.7001L205.854 70.8932C205.764 70.927 205.638 70.9607 205.477 70.9945C205.315 71.032 205.111 71.0508 204.863 71.0508C204.488 71.0508 204.12 70.9701 203.76 70.8088C203.404 70.6475 203.107 70.4017 202.871 70.0715C202.638 69.7414 202.522 69.3249 202.522 68.8221V60.2226ZM207.694 70.9382V62.2937H209.022V70.9382H207.694ZM208.369 60.8529C208.111 60.8529 207.887 60.7648 207.7 60.5884C207.516 60.4121 207.424 60.2001 207.424 59.9525C207.424 59.7048 207.516 59.4928 207.7 59.3165C207.887 59.1401 208.111 59.052 208.369 59.052C208.628 59.052 208.85 59.1401 209.034 59.3165C209.221 59.4928 209.315 59.7048 209.315 59.9525C209.315 60.2001 209.221 60.4121 209.034 60.5884C208.85 60.7648 208.628 60.8529 208.369 60.8529ZM214.967 71.1183C214.186 71.1183 213.502 70.9326 212.913 70.5612C212.327 70.1897 211.87 69.6701 211.539 69.0022C211.213 68.3344 211.05 67.554 211.05 66.661C211.05 65.7605 211.213 64.9745 211.539 64.3029C211.87 63.6313 212.327 63.1097 212.913 62.7383C213.502 62.3668 214.186 62.1811 214.967 62.1811C215.747 62.1811 216.43 62.3668 217.015 62.7383C217.604 63.1097 218.062 63.6313 218.389 64.3029C218.719 64.9745 218.884 65.7605 218.884 66.661C218.884 67.554 218.719 68.3344 218.389 69.0022C218.062 69.6701 217.604 70.1897 217.015 70.5612C216.43 70.9326 215.747 71.1183 214.967 71.1183ZM214.967 69.9252C215.56 69.9252 216.047 69.7732 216.43 69.4693C216.813 69.1654 217.096 68.7658 217.28 68.2706C217.464 67.7753 217.556 67.2388 217.556 66.661C217.556 66.0832 217.464 65.5448 217.28 65.0458C217.096 64.5467 216.813 64.1434 216.43 63.8357C216.047 63.5281 215.56 63.3743 214.967 63.3743C214.374 63.3743 213.886 63.5281 213.504 63.8357C213.121 64.1434 212.838 64.5467 212.654 65.0458C212.47 65.5448 212.378 66.0832 212.378 66.661C212.378 67.2388 212.47 67.7753 212.654 68.2706C212.838 68.7658 213.121 69.1654 213.504 69.4693C213.886 69.7732 214.374 69.9252 214.967 69.9252ZM222.24 65.738V70.9382H220.911V62.2937H222.195V63.6444H222.307C222.51 63.2054 222.817 62.8527 223.23 62.5863C223.643 62.3162 224.176 62.1811 224.828 62.1811C225.414 62.1811 225.926 62.3012 226.365 62.5413C226.804 62.7777 227.145 63.1379 227.389 63.6219C227.633 64.1021 227.755 64.71 227.755 65.4453V70.9382H226.427V65.5354C226.427 64.8563 226.25 64.3273 225.898 63.9483C225.545 63.5656 225.061 63.3743 224.446 63.3743C224.022 63.3743 223.643 63.4662 223.309 63.65C222.979 63.8339 222.718 64.1021 222.527 64.4548C222.335 64.8075 222.24 65.2352 222.24 65.738ZM235.607 71.0283C235.33 71.0283 235.091 70.9289 234.893 70.73C234.694 70.5311 234.594 70.2929 234.594 70.0152C234.594 69.7376 234.694 69.4994 234.893 69.3005C235.091 69.1016 235.33 69.0022 235.607 69.0022C235.885 69.0022 236.123 69.1016 236.322 69.3005C236.521 69.4994 236.62 69.7376 236.62 70.0152C236.62 70.1991 236.573 70.3679 236.48 70.5218C236.39 70.6756 236.268 70.7994 236.114 70.8932C235.964 70.9833 235.795 71.0283 235.607 71.0283ZM239.972 71.0283C239.694 71.0283 239.456 70.9289 239.257 70.73C239.058 70.5311 238.959 70.2929 238.959 70.0152C238.959 69.7376 239.058 69.4994 239.257 69.3005C239.456 69.1016 239.694 69.0022 239.972 69.0022C240.249 69.0022 240.488 69.1016 240.687 69.3005C240.885 69.4994 240.985 69.7376 240.985 70.0152C240.985 70.1991 240.938 70.3679 240.844 70.5218C240.754 70.6756 240.632 70.7994 240.478 70.8932C240.328 70.9833 240.159 71.0283 239.972 71.0283ZM244.336 71.0283C244.059 71.0283 243.82 70.9289 243.622 70.73C243.423 70.5311 243.323 70.2929 243.323 70.0152C243.323 69.7376 243.423 69.4994 243.622 69.3005C243.82 69.1016 244.059 69.0022 244.336 69.0022C244.614 69.0022 244.852 69.1016 245.051 69.3005C245.25 69.4994 245.349 69.7376 245.349 70.0152C245.349 70.1991 245.302 70.3679 245.209 70.5218C245.119 70.6756 244.997 70.7994 244.843 70.8932C244.693 70.9833 244.524 71.0283 244.336 71.0283Z" fill="#FEFEFE"/>
<path d="M47.0458 47.418C46.9325 47.2041 46.6674 47.1226 46.4535 47.2359L44.3487 48.3505C44.1348 48.4638 44.0533 48.7289 44.1665 48.9428C44.2798 49.1567 44.5449 49.2383 44.7589 49.125L46.8637 48.0103C47.0776 47.8971 47.1591 47.6319 47.0458 47.418Z" fill="#FEFEFE"/>
<path d="M41.1921 44.868L42.5073 42.8825C42.641 42.6807 42.5858 42.4088 42.384 42.2753C42.1822 42.1417 41.9103 42.1968 41.7768 42.3986L40.4615 44.3843C40.3696 44.5228 40.367 44.6945 40.4396 44.8317C40.4729 44.8943 40.5216 44.9497 40.5848 44.9915C40.7866 45.1252 41.0585 45.0699 41.1921 44.8682V44.868Z" fill="#FEFEFE"/>
<path d="M48.6796 54.1643C48.6824 53.9222 48.4885 53.7238 48.2466 53.7211L45.8652 53.693C45.6232 53.6903 45.4247 53.8839 45.4218 54.126C45.421 54.2019 45.4393 54.2734 45.4725 54.3359C45.5453 54.4732 45.6887 54.5673 45.8548 54.5693L48.2362 54.5973C48.4783 54.6002 48.6767 54.4064 48.6796 54.1643Z" fill="#FEFEFE"/>
<path d="M46.8875 60.8701C47.0058 60.6589 46.9302 60.3918 46.7192 60.2737L44.6414 59.1098C44.4302 58.9915 44.1631 59.0669 44.045 59.278C43.9695 59.4129 43.9729 59.5704 44.0401 59.6976C44.0782 59.7695 44.1369 59.8318 44.213 59.8744L46.2909 61.0383C46.5023 61.1564 46.7692 61.0812 46.8875 60.8701Z" fill="#FEFEFE"/>
<path d="M16.4735 57.8746C17.9929 57.8746 19.2246 56.6429 19.2246 55.1235C19.2246 53.6041 17.9929 52.3724 16.4735 52.3724C14.9541 52.3724 13.7224 53.6041 13.7224 55.1235C13.7224 56.6429 14.9541 57.8746 16.4735 57.8746Z" fill="#FEFEFE"/>
<path d="M35.9429 40.945C37.4622 40.945 38.6939 39.7133 38.6939 38.194C38.6939 36.6746 37.4622 35.4429 35.9429 35.4429C34.4235 35.4429 33.1918 36.6746 33.1918 38.194C33.1918 39.7133 34.4235 40.945 35.9429 40.945Z" fill="#FEFEFE"/>
<path d="M30.0174 75.2276C31.5368 75.2276 32.7685 73.9959 32.7685 72.4765C32.7685 70.9572 31.5368 69.7255 30.0174 69.7255C28.4981 69.7255 27.2664 70.9572 27.2664 72.4765C27.2664 73.9959 28.4981 75.2276 30.0174 75.2276Z" fill="#FEFEFE"/>
</svg>
