<svg width="110" height="45" viewBox="0 0 110 45" fill="none" xmlns="http://www.w3.org/2000/svg">
<path fill-rule="evenodd" clip-rule="evenodd" d="M21.1506 26.9427L8.10275 8.72456C7.11677 7.34786 4.84496 13.1377 6.42175 15.9083L12.7871 27.0925C13.5581 28.1206 12.6498 29.2552 12.3273 29.3977L1.45679 38.6517C-1.32466 41.0195 0.305047 43.7857 2.77194 44.4212L19.9727 33.0791C22.0122 31.7342 22.4054 28.6947 21.1506 26.9426V26.9427Z" fill="#2DD705"/>
<path fill-rule="evenodd" clip-rule="evenodd" d="M7.5424 14.9036L29.3141 0.115453C30.9593 -1.00204 31.1148 6.3013 28.253 8.71545L16.7002 18.4612C15.4332 19.2816 15.9743 20.9006 16.2719 21.1886L24.5001 35.7982C26.6054 39.5363 23.6869 41.9243 20.7101 41.6242L6.35149 22.1453C4.64892 19.8356 5.44846 16.3258 7.54232 14.9036H7.5424Z" fill="#001857"/>
<path d="M35.5579 19.8127C35.5187 19.4169 35.3503 19.1095 35.0526 18.8904C34.755 18.6712 34.3511 18.5617 33.8409 18.5617C33.4942 18.5617 33.2015 18.6107 32.9628 18.7089C32.724 18.8037 32.5409 18.9362 32.4133 19.1062C32.289 19.2763 32.2269 19.4693 32.2269 19.6851C32.2204 19.865 32.258 20.022 32.3397 20.1561C32.4248 20.2902 32.5409 20.4063 32.6881 20.5044C32.8352 20.5992 33.0053 20.6826 33.1983 20.7546C33.3912 20.8233 33.5973 20.8821 33.8164 20.9312L34.7191 21.147C35.1573 21.2452 35.5596 21.376 35.9259 21.5395C36.2922 21.703 36.6094 21.9042 36.8776 22.1429C37.1458 22.3817 37.3535 22.6629 37.5006 22.9867C37.6511 23.3105 37.7279 23.6817 37.7312 24.1003C37.7279 24.7152 37.571 25.2483 37.2603 25.6996C36.9528 26.1477 36.508 26.496 35.9259 26.7445C35.347 26.9898 34.6487 27.1125 33.8311 27.1125C33.02 27.1125 32.3136 26.9882 31.7118 26.7396C31.1133 26.4911 30.6456 26.1231 30.3087 25.6358C29.9751 25.1453 29.8002 24.5386 29.7838 23.8158H31.8394C31.8622 24.1527 31.9587 24.4339 32.1288 24.6596C32.3021 24.882 32.5327 25.0504 32.8205 25.1649C33.1116 25.2761 33.4403 25.3317 33.8066 25.3317C34.1663 25.3317 34.4787 25.2794 34.7436 25.1747C35.0118 25.07 35.2194 24.9245 35.3666 24.7381C35.5138 24.5517 35.5874 24.3374 35.5874 24.0954C35.5874 23.8698 35.5203 23.6801 35.3862 23.5263C35.2554 23.3726 35.0625 23.2418 34.8074 23.1339C34.5555 23.026 34.2465 22.9278 33.8802 22.8395L32.7862 22.5648C31.9391 22.3588 31.2703 22.0366 30.7797 21.5984C30.2891 21.1601 30.0455 20.5698 30.0487 19.8274C30.0455 19.2191 30.2074 18.6876 30.5344 18.233C30.8647 17.7784 31.3177 17.4235 31.8933 17.1684C32.4689 16.9133 33.123 16.7858 33.8556 16.7858C34.6013 16.7858 35.2521 16.9133 35.8081 17.1684C36.3674 17.4235 36.8024 17.7784 37.1131 18.233C37.4238 18.6876 37.584 19.2142 37.5938 19.8127H35.5579ZM39.16 26.9702V16.9232H43.1239C43.8827 16.9232 44.5302 17.0589 45.0666 17.3303C45.6062 17.5985 46.0167 17.9795 46.2979 18.4734C46.5825 18.964 46.7248 19.5412 46.7248 20.2051C46.7248 20.8723 46.5808 21.4463 46.293 21.9271C46.0052 22.4046 45.5882 22.7709 45.0421 23.026C44.4992 23.2811 43.8418 23.4086 43.0699 23.4086H40.4159V21.7014H42.7265C43.1321 21.7014 43.4689 21.6458 43.7371 21.5346C44.0053 21.4234 44.2048 21.2566 44.3356 21.0342C44.4697 20.8118 44.5368 20.5354 44.5368 20.2051C44.5368 19.8715 44.4697 19.5903 44.3356 19.3613C44.2048 19.1324 44.0037 18.9591 43.7322 18.8413C43.464 18.7203 43.1255 18.6598 42.7167 18.6598H41.2842V26.9702H39.16ZM44.5858 22.398L47.0829 26.9702H44.7379L42.2948 22.398H44.5858ZM48.2259 26.9702V16.9232H54.9959V18.6745H50.3501V21.0685H54.6476V22.8199H50.3501V25.2188H55.0155V26.9702H48.2259ZM58.9463 26.9702L56.0715 16.9232H58.392L60.055 23.9041H60.1384L61.9732 16.9232H63.96L65.7899 23.9188H65.8782L67.5413 16.9232H69.8617L66.9869 26.9702H64.9167L63.0034 20.4014H62.9249L61.0166 26.9702H58.9463ZM70.616 18.6745V16.9232H78.8675V18.6745H75.7916V26.9702H73.6919V18.6745H70.616ZM80.2264 26.9702V16.9232H86.9964V18.6745H82.3506V21.0685H86.6481V22.8199H82.3506V25.2188H87.016V26.9702H80.2264ZM97.55 20.4406H95.4013C95.362 20.1626 95.2819 19.9157 95.1609 19.6998C95.0399 19.4807 94.8845 19.2943 94.6948 19.1406C94.5051 18.9869 94.286 18.8691 94.0374 18.7874C93.7922 18.7056 93.5256 18.6647 93.2378 18.6647C92.7178 18.6647 92.2648 18.7939 91.8789 19.0523C91.493 19.3074 91.1937 19.6802 90.9811 20.1708C90.7686 20.6581 90.6623 21.2501 90.6623 21.9467C90.6623 22.6629 90.7686 23.2647 90.9811 23.752C91.197 24.2393 91.4979 24.6073 91.8838 24.8558C92.2697 25.1044 92.7162 25.2287 93.2231 25.2287C93.5076 25.2287 93.7709 25.191 94.0129 25.1158C94.2582 25.0406 94.4757 24.931 94.6654 24.7871C94.8551 24.64 95.0121 24.4617 95.1363 24.2524C95.2639 24.0431 95.3522 23.8043 95.4013 23.5362L97.55 23.546C97.4944 24.0071 97.3554 24.4519 97.133 24.8803C96.9139 25.3055 96.6179 25.6865 96.2451 26.0234C95.8755 26.357 95.434 26.6219 94.9205 26.8181C94.4103 27.0111 93.833 27.1076 93.1887 27.1076C92.2926 27.1076 91.4913 26.9048 90.7849 26.4993C90.0817 26.0937 89.5258 25.5067 89.1169 24.7381C88.7114 23.9695 88.5086 23.039 88.5086 21.9467C88.5086 20.8511 88.7147 19.919 89.1267 19.1504C89.5388 18.3818 90.0981 17.7964 90.8045 17.3941C91.511 16.9886 92.3057 16.7858 93.1887 16.7858C93.7709 16.7858 94.3105 16.8676 94.8077 17.0311C95.308 17.1946 95.7512 17.4334 96.1371 17.7473C96.523 18.058 96.837 18.439 97.079 18.8904C97.3243 19.3417 97.4813 19.8585 97.55 20.4406ZM99.0732 26.9702V16.9232H101.197V21.0685H105.51V16.9232H107.629V26.9702H105.51V22.8199H101.197V26.9702H99.0732Z" fill="#001857"/>
<path d="M29.7591 35.5806V30.813H32.6177V31.3252H30.3364V32.9361H32.4036V33.4482H30.3364V35.5806H29.7591ZM33.532 35.5806V32.0049H34.0814V35.5806H33.532ZM33.8114 31.409C33.7043 31.409 33.6119 31.3725 33.5343 31.2996C33.4583 31.2266 33.4203 31.1389 33.4203 31.0365C33.4203 30.9341 33.4583 30.8464 33.5343 30.7735C33.6119 30.7005 33.7043 30.664 33.8114 30.664C33.9185 30.664 34.01 30.7005 34.0861 30.7735C34.1637 30.8464 34.2025 30.9341 34.2025 31.0365C34.2025 31.1389 34.1637 31.2266 34.0861 31.2996C34.01 31.3725 33.9185 31.409 33.8114 31.409ZM35.637 33.4296V35.5806H35.0876V32.0049H35.6184V32.5636H35.665C35.7488 32.382 35.876 32.2362 36.0467 32.126C36.2174 32.0142 36.4378 31.9584 36.7079 31.9584C36.95 31.9584 37.1618 32.008 37.3434 32.1073C37.5249 32.2051 37.6662 32.3541 37.767 32.5543C37.8679 32.7529 37.9184 33.0044 37.9184 33.3085V35.5806H37.369V33.3458C37.369 33.0649 37.296 32.8461 37.1502 32.6893C37.0043 32.531 36.8041 32.4519 36.5496 32.4519C36.3742 32.4519 36.2174 32.4899 36.0793 32.5659C35.9428 32.642 35.8349 32.7529 35.7557 32.8988C35.6766 33.0447 35.637 33.2216 35.637 33.4296ZM40.2724 35.6551C39.9745 35.6551 39.7114 35.5798 39.4833 35.4293C39.2552 35.2772 39.0767 35.063 38.9479 34.7868C38.8191 34.509 38.7547 34.1807 38.7547 33.8021C38.7547 33.4265 38.8191 33.1006 38.9479 32.8243C39.0767 32.5481 39.2559 32.3347 39.4856 32.1842C39.7153 32.0336 39.9807 31.9584 40.2818 31.9584C40.5145 31.9584 40.6985 31.9972 40.8335 32.0748C40.97 32.1508 41.074 32.2377 41.1454 32.3355C41.2183 32.4317 41.275 32.5108 41.3153 32.5729H41.3619V30.813H41.9113V35.5806H41.3805V35.0312H41.3153C41.275 35.0964 41.2176 35.1786 41.1431 35.2779C41.0686 35.3757 40.9623 35.4634 40.8242 35.541C40.686 35.617 40.5021 35.6551 40.2724 35.6551ZM40.3469 35.1615C40.5673 35.1615 40.7535 35.1041 40.9056 34.9893C41.0577 34.8729 41.1733 34.7123 41.2525 34.5074C41.3316 34.301 41.3712 34.0628 41.3712 33.7927C41.3712 33.5258 41.3324 33.2922 41.2548 33.092C41.1772 32.8903 41.0624 32.7335 40.9103 32.6218C40.7582 32.5085 40.5704 32.4519 40.3469 32.4519C40.1142 32.4519 39.9202 32.5116 39.765 32.6311C39.6113 32.7491 39.4957 32.9097 39.4181 33.113C39.3421 33.3147 39.304 33.5413 39.304 33.7927C39.304 34.0473 39.3428 34.2785 39.4204 34.4865C39.4996 34.6929 39.616 34.8574 39.7696 34.98C39.9248 35.101 40.1173 35.1615 40.3469 35.1615ZM44.5022 30.813H45.1634L46.4856 33.0385H46.5415L47.8637 30.813H48.5248L46.8022 33.6158V35.5806H46.2249V33.6158L44.5022 30.813ZM50.1439 35.6551C49.8211 35.6551 49.5379 35.5782 49.2942 35.4246C49.0521 35.271 48.8628 35.056 48.7262 34.7798C48.5912 34.5035 48.5237 34.1807 48.5237 33.8114C48.5237 33.4389 48.5912 33.1138 48.7262 32.836C48.8628 32.5582 49.0521 32.3425 49.2942 32.1888C49.5379 32.0352 49.8211 31.9584 50.1439 31.9584C50.4667 31.9584 50.7491 32.0352 50.9912 32.1888C51.2349 32.3425 51.4242 32.5582 51.5593 32.836C51.6958 33.1138 51.7641 33.4389 51.7641 33.8114C51.7641 34.1807 51.6958 34.5035 51.5593 34.7798C51.4242 35.056 51.2349 35.271 50.9912 35.4246C50.7491 35.5782 50.4667 35.6551 50.1439 35.6551ZM50.1439 35.1615C50.3891 35.1615 50.5909 35.0987 50.7491 34.973C50.9074 34.8473 51.0246 34.682 51.1007 34.4771C51.1767 34.2723 51.2147 34.0504 51.2147 33.8114C51.2147 33.5724 51.1767 33.3497 51.1007 33.1433C51.0246 32.9369 50.9074 32.77 50.7491 32.6428C50.5909 32.5155 50.3891 32.4519 50.1439 32.4519C49.8987 32.4519 49.6969 32.5155 49.5386 32.6428C49.3803 32.77 49.2632 32.9369 49.1871 33.1433C49.1111 33.3497 49.0731 33.5724 49.0731 33.8114C49.0731 34.0504 49.1111 34.2723 49.1871 34.4771C49.2632 34.682 49.3803 34.8473 49.5386 34.973C49.6969 35.0987 49.8987 35.1615 50.1439 35.1615ZM54.8561 34.1186V32.0049H55.4055V35.5806H54.8561V34.9753H54.8189C54.7351 35.1569 54.6047 35.3113 54.4278 35.4386C54.2509 35.5643 54.0274 35.6271 53.7574 35.6271C53.5339 35.6271 53.3352 35.5782 53.1614 35.4805C52.9876 35.3811 52.851 35.2322 52.7517 35.0335C52.6524 34.8333 52.6027 34.5811 52.6027 34.2769V32.0049H53.1521V34.2397C53.1521 34.5004 53.2251 34.7084 53.3709 34.8636C53.5184 35.0188 53.7062 35.0964 53.9343 35.0964C54.0709 35.0964 54.2098 35.0614 54.351 34.9916C54.4938 34.9218 54.6133 34.8147 54.7095 34.6704C54.8073 34.526 54.8561 34.3421 54.8561 34.1186ZM56.4118 35.5806V32.0049H56.9425V32.545H56.9798C57.0449 32.3681 57.1629 32.2245 57.3336 32.1143C57.5043 32.0041 57.6968 31.949 57.9109 31.949C57.9513 31.949 58.0017 31.9498 58.0622 31.9514C58.1228 31.9529 58.1685 31.9553 58.1996 31.9584V32.5171C58.181 32.5124 58.1383 32.5054 58.0716 32.4961C58.0064 32.4852 57.9373 32.4798 57.8644 32.4798C57.6906 32.4798 57.5354 32.5163 57.3988 32.5892C57.2638 32.6606 57.1567 32.7599 57.0775 32.8872C56.9999 33.0129 56.9611 33.1564 56.9611 33.3179V35.5806H56.4118ZM60.769 35.5806V30.813H62.4358C62.7679 30.813 63.0418 30.8705 63.2575 30.9853C63.4732 31.0986 63.6339 31.2515 63.7394 31.4439C63.8449 31.6348 63.8977 31.8466 63.8977 32.0794C63.8977 32.2843 63.8612 32.4534 63.7883 32.5869C63.7169 32.7204 63.6222 32.8259 63.5043 32.9035C63.3879 32.9811 63.2614 33.0385 63.1248 33.0757V33.1223C63.2707 33.1316 63.4174 33.1828 63.5648 33.2759C63.7122 33.3691 63.8356 33.5025 63.9349 33.6763C64.0343 33.8502 64.0839 34.0628 64.0839 34.3142C64.0839 34.5532 64.0296 34.7681 63.921 34.959C63.8123 35.1499 63.6409 35.3012 63.4065 35.413C63.1722 35.5247 62.8672 35.5806 62.4916 35.5806H60.769ZM61.3463 35.0684H62.4916C62.8688 35.0684 63.1365 34.9955 63.2948 34.8496C63.4546 34.7022 63.5345 34.5237 63.5345 34.3142C63.5345 34.1528 63.4934 34.0038 63.4112 33.8672C63.3289 33.7291 63.2117 33.6189 63.0597 33.5367C62.9076 33.4529 62.7275 33.411 62.5196 33.411H61.3463V35.0684ZM61.3463 32.9081H62.4172C62.591 32.9081 62.7477 32.874 62.8874 32.8057C63.0286 32.7374 63.1404 32.6412 63.2226 32.5171C63.3064 32.3929 63.3483 32.247 63.3483 32.0794C63.3483 31.8699 63.2754 31.6922 63.1295 31.5463C62.9836 31.3989 62.7524 31.3252 62.4358 31.3252H61.3463V32.9081ZM66.4572 35.6551C66.1127 35.6551 65.8155 35.579 65.5656 35.4269C65.3173 35.2733 65.1257 35.0591 64.9906 34.7844C64.8572 34.5082 64.7904 34.1869 64.7904 33.8207C64.7904 33.4544 64.8572 33.1316 64.9906 32.8523C65.1257 32.5714 65.3134 32.3525 65.554 32.1958C65.7961 32.0375 66.0785 31.9584 66.4013 31.9584C66.5876 31.9584 66.7715 31.9894 66.9531 32.0515C67.1346 32.1136 67.2999 32.2144 67.4489 32.3541C67.5979 32.4922 67.7166 32.6754 67.8051 32.9035C67.8935 33.1316 67.9378 33.4125 67.9378 33.7462V33.979H65.1815V33.5041H67.3791C67.3791 33.3023 67.3387 33.1223 67.258 32.964C67.1789 32.8057 67.0656 32.6808 66.9181 32.5892C66.7723 32.4977 66.6 32.4519 66.4013 32.4519C66.1825 32.4519 65.9932 32.5062 65.8333 32.6148C65.675 32.7219 65.5532 32.8616 65.4679 33.0338C65.3825 33.2061 65.3398 33.3908 65.3398 33.5879V33.9045C65.3398 34.1745 65.3864 34.4034 65.4795 34.5912C65.5742 34.7774 65.7053 34.9194 65.8729 35.0172C66.0405 35.1134 66.2353 35.1615 66.4572 35.1615C66.6015 35.1615 66.7319 35.1414 66.8483 35.101C66.9663 35.0591 67.0679 34.997 67.1533 34.9148C67.2386 34.831 67.3046 34.727 67.3511 34.6028L67.8819 34.7518C67.826 34.9319 67.7321 35.0902 67.6002 35.2267C67.4683 35.3617 67.3053 35.4673 67.1114 35.5433C66.9174 35.6178 66.6993 35.6551 66.4572 35.6551ZM71.3062 32.8057L70.8127 32.9454C70.7817 32.8631 70.7359 32.7832 70.6754 32.7056C70.6164 32.6265 70.5357 32.5613 70.4333 32.5101C70.3308 32.4589 70.1997 32.4332 70.0399 32.4332C69.821 32.4332 69.6387 32.4837 69.4928 32.5846C69.3485 32.6839 69.2763 32.8104 69.2763 32.964C69.2763 33.1006 69.326 33.2084 69.4253 33.2876C69.5246 33.3667 69.6798 33.4327 69.8909 33.4855L70.4216 33.6158C70.7413 33.6934 70.9795 33.8121 71.1363 33.972C71.293 34.1303 71.3714 34.3344 71.3714 34.5842C71.3714 34.7891 71.3124 34.9722 71.1945 35.1336C71.0781 35.295 70.9151 35.4223 70.7056 35.5154C70.4961 35.6085 70.2525 35.6551 69.9747 35.6551C69.61 35.6551 69.3081 35.5759 69.0691 35.4176C68.8301 35.2593 68.6788 35.0281 68.6152 34.7239L69.1366 34.5935C69.1863 34.786 69.2802 34.9303 69.4183 35.0265C69.558 35.1227 69.7403 35.1709 69.9654 35.1709C70.2214 35.1709 70.4247 35.1165 70.5753 35.0079C70.7274 34.8977 70.8034 34.7658 70.8034 34.6122C70.8034 34.488 70.7599 34.384 70.673 34.3002C70.5861 34.2149 70.4527 34.1512 70.2726 34.1093L69.6767 33.9697C69.3492 33.8921 69.1087 33.7718 68.9551 33.6088C68.803 33.4443 68.7269 33.2387 68.7269 32.9919C68.7269 32.7902 68.7836 32.6117 68.8969 32.4565C69.0117 32.3013 69.1677 32.1795 69.3648 32.091C69.5634 32.0026 69.7884 31.9584 70.0399 31.9584C70.3937 31.9584 70.6715 32.036 70.8732 32.1911C71.0765 32.3463 71.2209 32.5512 71.3062 32.8057ZM73.7534 32.0049V32.4705H71.9004V32.0049H73.7534ZM72.4405 31.1482H72.9899V34.5563C72.9899 34.7115 73.0124 34.8279 73.0574 34.9055C73.1039 34.9815 73.1629 35.0327 73.2343 35.0591C73.3072 35.0839 73.3841 35.0964 73.4648 35.0964C73.5253 35.0964 73.575 35.0933 73.6138 35.0871C73.6526 35.0793 73.6836 35.0731 73.7069 35.0684L73.8186 35.5619C73.7814 35.5759 73.7294 35.5899 73.6626 35.6038C73.5959 35.6194 73.5113 35.6271 73.4089 35.6271C73.2537 35.6271 73.1016 35.5938 72.9526 35.527C72.8052 35.4603 72.6826 35.3586 72.5848 35.2221C72.4886 35.0855 72.4405 34.9132 72.4405 34.7053V31.1482ZM79.1053 32.0049C79.0773 31.769 78.964 31.5859 78.7654 31.4555C78.5667 31.3252 78.3231 31.26 78.0344 31.26C77.8234 31.26 77.6387 31.2941 77.4804 31.3624C77.3237 31.4307 77.201 31.5246 77.1126 31.6441C77.0257 31.7636 76.9822 31.8994 76.9822 32.0515C76.9822 32.1787 77.0125 32.2881 77.073 32.3797C77.1351 32.4697 77.2142 32.545 77.3105 32.6055C77.4067 32.6645 77.5076 32.7134 77.6131 32.7522C77.7186 32.7894 77.8156 32.8197 77.9041 32.843L78.3883 32.9733C78.5124 33.0059 78.6506 33.0509 78.8026 33.1083C78.9563 33.1658 79.1029 33.2441 79.2426 33.3435C79.3838 33.4412 79.5002 33.5669 79.5918 33.7206C79.6834 33.8742 79.7291 34.0628 79.7291 34.2863C79.7291 34.5439 79.6616 34.7767 79.5266 34.9846C79.3932 35.1926 79.1976 35.3579 78.94 35.4805C78.6839 35.6031 78.3728 35.6644 78.0065 35.6644C77.6651 35.6644 77.3694 35.6093 77.1196 35.4991C76.8713 35.3889 76.6757 35.2353 76.5329 35.0382C76.3917 34.8411 76.3118 34.6122 76.2932 34.3514H76.8891C76.9046 34.5315 76.9652 34.6804 77.0707 34.7984C77.1778 34.9148 77.3128 35.0017 77.4757 35.0591C77.6402 35.115 77.8172 35.1429 78.0065 35.1429C78.2269 35.1429 78.4247 35.1072 78.6001 35.0358C78.7755 34.9629 78.9144 34.862 79.0168 34.7332C79.1192 34.6028 79.1704 34.4508 79.1704 34.2769C79.1704 34.1186 79.1262 33.9898 79.0378 33.8905C78.9493 33.7912 78.8329 33.7105 78.6886 33.6484C78.5442 33.5863 78.3883 33.532 78.2207 33.4855L77.634 33.3179C77.2616 33.2108 76.9667 33.0579 76.7494 32.8593C76.5322 32.6606 76.4235 32.4007 76.4235 32.0794C76.4235 31.8125 76.4957 31.5797 76.64 31.381C76.7859 31.1808 76.9814 31.0256 77.2267 30.9155C77.4734 30.8037 77.7489 30.7479 78.0531 30.7479C78.3603 30.7479 78.6335 30.8029 78.8725 30.9131C79.1115 31.0218 79.3008 31.1708 79.4405 31.3601C79.5817 31.5494 79.6562 31.7644 79.664 32.0049H79.1053ZM82.0565 35.6551C81.7337 35.6551 81.4504 35.5782 81.2068 35.4246C80.9647 35.271 80.7753 35.056 80.6388 34.7798C80.5038 34.5035 80.4362 34.1807 80.4362 33.8114C80.4362 33.4389 80.5038 33.1138 80.6388 32.836C80.7753 32.5582 80.9647 32.3425 81.2068 32.1888C81.4504 32.0352 81.7337 31.9584 82.0565 31.9584C82.3793 31.9584 82.6617 32.0352 82.9038 32.1888C83.1475 32.3425 83.3368 32.5582 83.4718 32.836C83.6084 33.1138 83.6767 33.4389 83.6767 33.8114C83.6767 34.1807 83.6084 34.5035 83.4718 34.7798C83.3368 35.056 83.1475 35.271 82.9038 35.4246C82.6617 35.5782 82.3793 35.6551 82.0565 35.6551ZM82.0565 35.1615C82.3017 35.1615 82.5034 35.0987 82.6617 34.973C82.82 34.8473 82.9372 34.682 83.0132 34.4771C83.0893 34.2723 83.1273 34.0504 83.1273 33.8114C83.1273 33.5724 83.0893 33.3497 83.0132 33.1433C82.9372 32.9369 82.82 32.77 82.6617 32.6428C82.5034 32.5155 82.3017 32.4519 82.0565 32.4519C81.8113 32.4519 81.6095 32.5155 81.4512 32.6428C81.2929 32.77 81.1757 32.9369 81.0997 33.1433C81.0236 33.3497 80.9856 33.5724 80.9856 33.8114C80.9856 34.0504 81.0236 34.2723 81.0997 34.4771C81.1757 34.682 81.2929 34.8473 81.4512 34.973C81.6095 35.0987 81.8113 35.1615 82.0565 35.1615ZM85.0647 30.813V35.5806H84.5153V30.813H85.0647ZM88.3243 34.1186V32.0049H88.8737V35.5806H88.3243V34.9753H88.2871C88.2033 35.1569 88.0729 35.3113 87.896 35.4386C87.7191 35.5643 87.4956 35.6271 87.2256 35.6271C87.0021 35.6271 86.8034 35.5782 86.6296 35.4805C86.4558 35.3811 86.3192 35.2322 86.2199 35.0335C86.1206 34.8333 86.0709 34.5811 86.0709 34.2769V32.0049H86.6203V34.2397C86.6203 34.5004 86.6932 34.7084 86.8391 34.8636C86.9866 35.0188 87.1743 35.0964 87.4025 35.0964C87.539 35.0964 87.6779 35.0614 87.8192 34.9916C87.9619 34.9218 88.0814 34.8147 88.1777 34.6704C88.2754 34.526 88.3243 34.3421 88.3243 34.1186ZM91.435 32.0049V32.4705H89.582V32.0049H91.435ZM90.122 31.1482H90.6714V34.5563C90.6714 34.7115 90.6939 34.8279 90.7389 34.9055C90.7855 34.9815 90.8445 35.0327 90.9159 35.0591C90.9888 35.0839 91.0656 35.0964 91.1463 35.0964C91.2068 35.0964 91.2565 35.0933 91.2953 35.0871C91.3341 35.0793 91.3651 35.0731 91.3884 35.0684L91.5002 35.5619C91.4629 35.5759 91.4109 35.5899 91.3442 35.6038C91.2775 35.6194 91.1929 35.6271 91.0904 35.6271C90.9353 35.6271 90.7832 35.5938 90.6342 35.527C90.4867 35.4603 90.3641 35.3586 90.2664 35.2221C90.1702 35.0855 90.122 34.9132 90.122 34.7053V31.1482ZM92.2614 35.5806V32.0049H92.8108V35.5806H92.2614ZM92.5407 31.409C92.4336 31.409 92.3413 31.3725 92.2637 31.2996C92.1877 31.2266 92.1496 31.1389 92.1496 31.0365C92.1496 30.9341 92.1877 30.8464 92.2637 30.7735C92.3413 30.7005 92.4336 30.664 92.5407 30.664C92.6478 30.664 92.7394 30.7005 92.8154 30.7735C92.893 30.8464 92.9318 30.9341 92.9318 31.0365C92.9318 31.1389 92.893 31.2266 92.8154 31.2996C92.7394 31.3725 92.6478 31.409 92.5407 31.409ZM95.2696 35.6551C94.9468 35.6551 94.6636 35.5782 94.4199 35.4246C94.1778 35.271 93.9885 35.056 93.8519 34.7798C93.7169 34.5035 93.6494 34.1807 93.6494 33.8114C93.6494 33.4389 93.7169 33.1138 93.8519 32.836C93.9885 32.5582 94.1778 32.3425 94.4199 32.1888C94.6636 32.0352 94.9468 31.9584 95.2696 31.9584C95.5924 31.9584 95.8749 32.0352 96.117 32.1888C96.3606 32.3425 96.5499 32.5582 96.685 32.836C96.8215 33.1138 96.8898 33.4389 96.8898 33.8114C96.8898 34.1807 96.8215 34.5035 96.685 34.7798C96.5499 35.056 96.3606 35.271 96.117 35.4246C95.8749 35.5782 95.5924 35.6551 95.2696 35.6551ZM95.2696 35.1615C95.5148 35.1615 95.7166 35.0987 95.8749 34.973C96.0332 34.8473 96.1503 34.682 96.2264 34.4771C96.3024 34.2723 96.3404 34.0504 96.3404 33.8114C96.3404 33.5724 96.3024 33.3497 96.2264 33.1433C96.1503 32.9369 96.0332 32.77 95.8749 32.6428C95.7166 32.5155 95.5148 32.4519 95.2696 32.4519C95.0244 32.4519 94.8226 32.5155 94.6644 32.6428C94.5061 32.77 94.3889 32.9369 94.3128 33.1433C94.2368 33.3497 94.1988 33.5724 94.1988 33.8114C94.1988 34.0504 94.2368 34.2723 94.3128 34.4771C94.3889 34.682 94.5061 34.8473 94.6644 34.973C94.8226 35.0987 95.0244 35.1615 95.2696 35.1615ZM98.2778 33.4296V35.5806H97.7284V32.0049H98.2592V32.5636H98.3058C98.3896 32.382 98.5168 32.2362 98.6875 32.126C98.8582 32.0142 99.0786 31.9584 99.3487 31.9584C99.5908 31.9584 99.8026 32.008 99.9842 32.1073C100.166 32.2051 100.307 32.3541 100.408 32.5543C100.509 32.7529 100.559 33.0044 100.559 33.3085V35.5806H100.01V33.3458C100.01 33.0649 99.9368 32.8461 99.791 32.6893C99.6451 32.531 99.4449 32.4519 99.1904 32.4519C99.015 32.4519 98.8582 32.4899 98.7201 32.5659C98.5836 32.642 98.4757 32.7529 98.3965 32.8988C98.3174 33.0447 98.2778 33.2216 98.2778 33.4296ZM103.807 35.6178C103.692 35.6178 103.594 35.5767 103.512 35.4944C103.429 35.4122 103.388 35.3136 103.388 35.1988C103.388 35.0839 103.429 34.9854 103.512 34.9031C103.594 34.8209 103.692 34.7798 103.807 34.7798C103.922 34.7798 104.021 34.8209 104.103 34.9031C104.185 34.9854 104.226 35.0839 104.226 35.1988C104.226 35.2748 104.207 35.3447 104.168 35.4083C104.131 35.4719 104.08 35.5231 104.017 35.5619C103.955 35.5992 103.885 35.6178 103.807 35.6178ZM105.612 35.6178C105.498 35.6178 105.399 35.5767 105.317 35.4944C105.235 35.4122 105.193 35.3136 105.193 35.1988C105.193 35.0839 105.235 34.9854 105.317 34.9031C105.399 34.8209 105.498 34.7798 105.612 34.7798C105.727 34.7798 105.826 34.8209 105.908 34.9031C105.99 34.9854 106.031 35.0839 106.031 35.1988C106.031 35.2748 106.012 35.3447 105.973 35.4083C105.936 35.4719 105.886 35.5231 105.822 35.5619C105.76 35.5992 105.69 35.6178 105.612 35.6178ZM107.418 35.6178C107.303 35.6178 107.204 35.5767 107.122 35.4944C107.04 35.4122 106.999 35.3136 106.999 35.1988C106.999 35.0839 107.04 34.9854 107.122 34.9031C107.204 34.8209 107.303 34.7798 107.418 34.7798C107.533 34.7798 107.631 34.8209 107.713 34.9031C107.796 34.9854 107.837 35.0839 107.837 35.1988C107.837 35.2748 107.817 35.3447 107.779 35.4083C107.741 35.4719 107.691 35.5231 107.627 35.5619C107.565 35.5992 107.495 35.6178 107.418 35.6178Z" fill="#2DD705"/>
<path d="M24.8487 25.0484C24.7884 24.9347 24.6474 24.8912 24.5337 24.9515L23.4141 25.5444C23.3003 25.6046 23.257 25.7457 23.3171 25.8594C23.3774 25.9732 23.5184 26.0166 23.6323 25.9563L24.7518 25.3634C24.8656 25.3032 24.909 25.1621 24.8488 25.0483L24.8487 25.0484Z" fill="black"/>
<path d="M21.7348 23.6919L22.4344 22.6357C22.5055 22.5284 22.4762 22.3838 22.3688 22.3127C22.2615 22.2416 22.1169 22.271 22.0458 22.3783L21.3462 23.4346C21.2973 23.5083 21.2959 23.5996 21.3345 23.6725C21.3522 23.7058 21.3781 23.7353 21.4118 23.7576C21.5191 23.8287 21.6637 23.7993 21.7348 23.6919Z" fill="black"/>
<path d="M25.7177 28.6367C25.7193 28.5079 25.6161 28.4023 25.4874 28.4009L24.2207 28.386C24.0919 28.3845 23.9864 28.4875 23.9849 28.6163C23.9844 28.6566 23.9942 28.6947 24.0119 28.7279C24.0506 28.801 24.1268 28.851 24.2153 28.8521L25.482 28.867C25.6108 28.8685 25.7163 28.7653 25.7178 28.6367H25.7177Z" fill="black"/>
<path d="M24.7645 32.204C24.8274 32.0916 24.7872 31.9495 24.675 31.8867L23.5696 31.2676C23.4572 31.2046 23.3152 31.2447 23.2523 31.3571C23.2121 31.4288 23.2139 31.5127 23.2498 31.5803C23.2701 31.6186 23.3012 31.6517 23.3418 31.6744L24.4472 32.2935C24.5595 32.3563 24.7015 32.3162 24.7645 32.204Z" fill="black"/>
<path d="M8.58606 30.6106C9.39427 30.6106 10.0494 29.9554 10.0494 29.1472C10.0494 28.339 9.39427 27.6838 8.58606 27.6838C7.77786 27.6838 7.12268 28.339 7.12268 29.1472C7.12268 29.9554 7.77786 30.6106 8.58606 30.6106Z" fill="#001857"/>
<path d="M18.9425 21.605C19.7507 21.605 20.4059 20.9498 20.4059 20.1416C20.4059 19.3334 19.7507 18.6782 18.9425 18.6782C18.1343 18.6782 17.4791 19.3334 17.4791 20.1416C17.4791 20.9498 18.1343 21.605 18.9425 21.605Z" fill="#001857"/>
<path d="M15.7907 39.8411C16.5989 39.8411 17.254 39.1859 17.254 38.3777C17.254 37.5695 16.5989 36.9143 15.7907 36.9143C14.9824 36.9143 14.3273 37.5695 14.3273 38.3777C14.3273 39.1859 14.9824 39.8411 15.7907 39.8411Z" fill="#001857"/>
</svg>
