<svg width="231" height="94" viewBox="0 0 231 94" fill="none" xmlns="http://www.w3.org/2000/svg">
<path fill-rule="evenodd" clip-rule="evenodd" d="M44.4975 56.6829L17.0469 18.3548C14.9726 15.4584 10.193 27.6394 13.5104 33.4682L26.9021 56.9982C28.5242 59.161 26.6131 61.5481 25.9347 61.8479L3.06485 81.3168C-2.78687 86.2983 0.641771 92.118 5.83173 93.455L42.0194 69.593C46.3103 66.7635 47.1374 60.3689 44.4975 56.6827V56.6829Z" fill="#2DD705"/>
<path fill-rule="evenodd" clip-rule="evenodd" d="M15.8678 31.3548L61.6722 0.242896C65.1334 -2.10813 65.4606 13.257 59.4398 18.3359L35.1343 38.8395C32.4689 40.5655 33.6072 43.9717 34.2333 44.5775L51.5441 75.3138C55.9734 83.1782 49.8334 88.2023 43.5706 87.5708L13.3623 46.5902C9.78038 41.7309 11.4625 34.347 15.8677 31.3548H15.8678Z" fill="#001857"/>
<path d="M74.9358 41.0849C74.8524 40.2443 74.4947 39.5914 73.8625 39.1259C73.2304 38.6605 72.3725 38.4278 71.2888 38.4278C70.5525 38.4278 69.9308 38.532 69.4237 38.7404C68.9166 38.9419 68.5276 39.2232 68.2567 39.5844C67.9927 39.9456 67.8607 40.3555 67.8607 40.814C67.8468 41.196 67.9267 41.5294 68.1004 41.8143C68.281 42.0991 68.5276 42.3457 68.8402 42.5541C69.1528 42.7555 69.514 42.9326 69.9238 43.0855C70.3337 43.2313 70.7713 43.3564 71.2367 43.4606L73.154 43.9191C74.0848 44.1274 74.9392 44.4053 75.7172 44.7526C76.4953 45.1 77.1691 45.5272 77.7387 46.0343C78.3083 46.5414 78.7494 47.1388 79.062 47.8265C79.3815 48.5142 79.5448 49.3026 79.5517 50.1918C79.5448 51.4977 79.2113 52.63 78.5514 53.5886C77.8985 54.5403 76.9537 55.2801 75.7172 55.808C74.4877 56.329 73.0046 56.5895 71.268 56.5895C69.5452 56.5895 68.0448 56.3256 66.7666 55.7976C65.4954 55.2697 64.5021 54.4882 63.7866 53.4532C63.078 52.4112 62.7064 51.1226 62.6717 49.5874H67.0376C67.0862 50.3029 67.2911 50.9003 67.6523 51.3796C68.0205 51.852 68.5102 52.2097 69.1215 52.4529C69.7398 52.689 70.4379 52.8071 71.2159 52.8071C71.98 52.8071 72.6434 52.696 73.2061 52.4737C73.7757 52.2514 74.2168 51.9423 74.5294 51.5463C74.842 51.1504 74.9983 50.6954 74.9983 50.1814C74.9983 49.702 74.8559 49.2991 74.5711 48.9727C74.2932 48.6462 73.8834 48.3683 73.3415 48.1391C72.8066 47.9098 72.1502 47.7014 71.3722 47.5139L69.0486 46.9304C67.2494 46.4927 65.8289 45.8085 64.7869 44.8777C63.7449 43.9468 63.2274 42.693 63.2343 41.1161C63.2274 39.8241 63.5712 38.6953 64.2659 37.7297C64.9675 36.7641 65.9296 36.0104 67.1522 35.4686C68.3748 34.9268 69.7641 34.6559 71.3201 34.6559C72.9039 34.6559 74.2863 34.9268 75.4672 35.4686C76.655 36.0104 77.5789 36.7641 78.2388 37.7297C78.8988 38.6953 79.2391 39.8137 79.26 41.0849H74.9358ZM82.5865 56.2874V34.9476H91.0057C92.6173 34.9476 93.9927 35.2359 95.1319 35.8125C96.2781 36.3821 97.1499 37.1913 97.7473 38.2403C98.3516 39.2822 98.6538 40.5083 98.6538 41.9185C98.6538 43.3355 98.3482 44.5547 97.7369 45.5758C97.1256 46.59 96.2399 47.368 95.0798 47.9098C93.9267 48.4517 92.5305 48.7226 90.8911 48.7226H85.254V45.0965H90.1617C91.0231 45.0965 91.7385 44.9784 92.3082 44.7422C92.8778 44.506 93.3015 44.1518 93.5794 43.6794C93.8642 43.207 94.0066 42.6201 94.0066 41.9185C94.0066 41.2099 93.8642 40.6125 93.5794 40.1262C93.3015 39.64 92.8743 39.2718 92.2977 39.0217C91.7281 38.7647 91.0092 38.6362 90.1408 38.6362H87.0983V56.2874H82.5865ZM94.1108 46.5761L99.4145 56.2874H94.4338L89.2447 46.5761H94.1108ZM101.842 56.2874V34.9476H116.222V38.6675H106.354V43.7523H115.482V47.4722H106.354V52.5675H116.263V56.2874H101.842ZM124.612 56.2874L118.506 34.9476H123.435L126.967 49.775H127.144L131.041 34.9476H135.261L139.148 49.8062H139.335L142.868 34.9476H147.796L141.69 56.2874H137.293L133.229 42.3352H133.063L129.009 56.2874H124.612ZM149.398 38.6675V34.9476H166.924V38.6675H160.391V56.2874H155.931V38.6675H149.398ZM169.811 56.2874V34.9476H184.19V38.6675H174.322V43.7523H183.45V47.4722H174.322V52.5675H184.232V56.2874H169.811ZM206.606 42.4186H202.042C201.958 41.8281 201.788 41.3037 201.531 40.8452C201.274 40.3798 200.944 39.9838 200.541 39.6574C200.138 39.3309 199.673 39.0808 199.145 38.9071C198.624 38.7335 198.058 38.6466 197.447 38.6466C196.342 38.6466 195.38 38.921 194.56 39.4698C193.741 40.0116 193.105 40.8035 192.653 41.8455C192.202 42.8805 191.976 44.1379 191.976 45.6175C191.976 47.1388 192.202 48.4169 192.653 49.452C193.112 50.487 193.751 51.2685 194.571 51.7964C195.39 52.3244 196.339 52.5883 197.415 52.5883C198.02 52.5883 198.579 52.5084 199.093 52.3487C199.614 52.1889 200.076 51.9562 200.479 51.6505C200.882 51.3379 201.215 50.9594 201.479 50.5148C201.75 50.0702 201.937 49.5631 202.042 48.9935L206.606 49.0143C206.487 49.9938 206.192 50.9385 205.72 51.8485C205.254 52.7516 204.626 53.5608 203.834 54.2763C203.049 54.9849 202.111 55.5475 201.021 55.9643C199.937 56.3742 198.711 56.5791 197.342 56.5791C195.439 56.5791 193.737 56.1484 192.237 55.2871C190.743 54.4257 189.562 53.1788 188.694 51.5463C187.833 49.9139 187.402 47.9376 187.402 45.6175C187.402 43.2904 187.839 41.3106 188.715 39.6782C189.59 38.0458 190.778 36.8023 192.278 35.9479C193.779 35.0865 195.467 34.6559 197.342 34.6559C198.579 34.6559 199.725 34.8295 200.781 35.1768C201.844 35.5242 202.785 36.0313 203.605 36.6981C204.424 37.3581 205.091 38.1673 205.605 39.1259C206.126 40.0846 206.46 41.1821 206.606 42.4186ZM209.841 56.2874V34.9476H214.353V43.7523H223.512V34.9476H228.013V56.2874H223.512V47.4722H214.353V56.2874H209.841Z" fill="#001857"/>
<path d="M62.6203 76.2327V66.1065H68.692V67.1943H63.8465V70.6158H68.2371V71.7036H63.8465V76.2327H62.6203ZM70.6339 76.2327V68.6381H71.8008V76.2327H70.6339ZM71.2272 67.3723C70.9998 67.3723 70.8037 67.2948 70.6388 67.1399C70.4773 66.985 70.3966 66.7987 70.3966 66.5812C70.3966 66.3636 70.4773 66.1774 70.6388 66.0225C70.8037 65.8675 70.9998 65.7901 71.2272 65.7901C71.4547 65.7901 71.6491 65.8675 71.8107 66.0225C71.9755 66.1774 72.0579 66.3636 72.0579 66.5812C72.0579 66.7987 71.9755 66.985 71.8107 67.1399C71.6491 67.2948 71.4547 67.3723 71.2272 67.3723ZM75.1049 71.664V76.2327H73.938V68.6381H75.0653V69.8247H75.1642C75.3422 69.4391 75.6125 69.1292 75.9751 68.8952C76.3377 68.6578 76.8058 68.5392 77.3793 68.5392C77.8935 68.5392 78.3435 68.6447 78.7291 68.8556C79.1148 69.0633 79.4147 69.3797 79.629 69.8049C79.8433 70.2269 79.9504 70.7609 79.9504 71.4069V76.2327H78.7835V71.486C78.7835 70.8894 78.6286 70.4246 78.3187 70.0917C78.0089 69.7555 77.5837 69.5874 77.0431 69.5874C76.6706 69.5874 76.3377 69.6681 76.0443 69.8297C75.7542 69.9912 75.5251 70.2269 75.357 70.5367C75.1889 70.8466 75.1049 71.2223 75.1049 71.664ZM84.9504 76.3909C84.3175 76.3909 83.7588 76.231 83.2743 75.9113C82.7897 75.5882 82.4106 75.1334 82.1371 74.5466C81.8635 73.9566 81.7267 73.2594 81.7267 72.4551C81.7267 71.6574 81.8635 70.9652 82.1371 70.3785C82.4106 69.7918 82.7914 69.3385 83.2792 69.0188C83.7671 68.699 84.3307 68.5392 84.9702 68.5392C85.4646 68.5392 85.8552 68.6216 86.142 68.7864C86.4321 68.9479 86.6529 69.1325 86.8046 69.3402C86.9595 69.5445 87.0798 69.7126 87.1655 69.8445H87.2644V66.1065H88.4313V76.2327H87.304V75.0658H87.1655C87.0798 75.2042 86.9578 75.3789 86.7996 75.5899C86.6414 75.7976 86.4156 75.9838 86.1222 76.1486C85.8289 76.3101 85.4383 76.3909 84.9504 76.3909ZM85.1086 75.3427C85.5767 75.3427 85.9723 75.2207 86.2953 74.9768C86.6183 74.7296 86.8639 74.3884 87.032 73.9533C87.2001 73.5149 87.2842 73.0089 87.2842 72.4354C87.2842 71.8684 87.2018 71.3723 87.037 70.9471C86.8721 70.5186 86.6282 70.1857 86.3052 69.9483C85.9822 69.7077 85.5833 69.5874 85.1086 69.5874C84.6142 69.5874 84.2022 69.7143 83.8725 69.9681C83.5462 70.2186 83.3006 70.5598 83.1358 70.9916C82.9743 71.4201 82.8935 71.9014 82.8935 72.4354C82.8935 72.976 82.976 73.4671 83.1408 73.9088C83.3089 74.3472 83.5561 74.6966 83.8824 74.957C84.2121 75.2141 84.6208 75.3427 85.1086 75.3427ZM93.9344 66.1065H95.3386L98.147 70.8334H98.2657L101.074 66.1065H102.478L98.8195 72.0596V76.2327H97.5933V72.0596L93.9344 66.1065ZM105.917 76.3909C105.232 76.3909 104.63 76.2277 104.112 75.9014C103.598 75.5751 103.196 75.1185 102.906 74.5318C102.619 73.9451 102.476 73.2594 102.476 72.4749C102.476 71.6838 102.619 70.9932 102.906 70.4032C103.196 69.8132 103.598 69.355 104.112 69.0287C104.63 68.7023 105.232 68.5392 105.917 68.5392C106.603 68.5392 107.203 68.7023 107.717 69.0287C108.234 69.355 108.637 69.8132 108.923 70.4032C109.213 70.9932 109.358 71.6838 109.358 72.4749C109.358 73.2594 109.213 73.9451 108.923 74.5318C108.637 75.1185 108.234 75.5751 107.717 75.9014C107.203 76.2277 106.603 76.3909 105.917 76.3909ZM105.917 75.3427C106.438 75.3427 106.866 75.2092 107.203 74.9422C107.539 74.6752 107.788 74.3241 107.949 73.889C108.111 73.4539 108.192 72.9825 108.192 72.4749C108.192 71.9673 108.111 71.4943 107.949 71.0559C107.788 70.6175 107.539 70.2631 107.203 69.9928C106.866 69.7225 106.438 69.5874 105.917 69.5874C105.396 69.5874 104.968 69.7225 104.632 69.9928C104.295 70.2631 104.047 70.6175 103.885 71.0559C103.723 71.4943 103.643 71.9673 103.643 72.4749C103.643 72.9825 103.723 73.4539 103.885 73.889C104.047 74.3241 104.295 74.6752 104.632 74.9422C104.968 75.2092 105.396 75.3427 105.917 75.3427ZM115.926 73.1276V68.6381H117.093V76.2327H115.926V74.9471H115.847C115.669 75.3328 115.392 75.6608 115.016 75.9311C114.64 76.1981 114.166 76.3316 113.592 76.3316C113.117 76.3316 112.696 76.2277 112.326 76.0201C111.957 75.8091 111.667 75.4927 111.456 75.0707C111.245 74.6455 111.14 74.1099 111.14 73.4638V68.6381H112.307V73.3847C112.307 73.9385 112.461 74.3802 112.771 74.7098C113.084 75.0394 113.483 75.2042 113.968 75.2042C114.258 75.2042 114.553 75.1301 114.853 74.9817C115.156 74.8334 115.41 74.606 115.614 74.2994C115.822 73.9929 115.926 73.6022 115.926 73.1276ZM119.23 76.2327V68.6381H120.357V69.7852H120.436C120.575 69.4094 120.825 69.1045 121.188 68.8704C121.551 68.6364 121.959 68.5194 122.414 68.5194C122.5 68.5194 122.607 68.521 122.736 68.5243C122.864 68.5276 122.961 68.5326 123.027 68.5392V69.7258C122.988 69.7159 122.897 69.7011 122.755 69.6813C122.617 69.6583 122.47 69.6467 122.315 69.6467C121.946 69.6467 121.616 69.7242 121.326 69.8791C121.04 70.0307 120.812 70.2417 120.644 70.512C120.479 70.779 120.397 71.0839 120.397 71.4267V76.2327H119.23ZM128.485 76.2327V66.1065H132.025C132.73 66.1065 133.312 66.2285 133.77 66.4724C134.228 66.713 134.57 67.0377 134.794 67.4465C135.018 67.8519 135.13 68.3018 135.13 68.7963C135.13 69.2314 135.052 69.5907 134.898 69.8742C134.746 70.1576 134.545 70.3818 134.294 70.5466C134.047 70.7114 133.778 70.8334 133.488 70.9125V71.0114C133.798 71.0312 134.11 71.1399 134.423 71.3377C134.736 71.5355 134.998 71.819 135.209 72.1881C135.42 72.5573 135.525 73.0089 135.525 73.5429C135.525 74.0505 135.41 74.5071 135.179 74.9125C134.949 75.318 134.584 75.6393 134.087 75.8767C133.589 76.114 132.941 76.2327 132.144 76.2327H128.485ZM129.711 75.1449H132.144C132.945 75.1449 133.513 74.99 133.849 74.6801C134.189 74.367 134.359 73.9879 134.359 73.5429C134.359 73.2001 134.271 72.8837 134.097 72.5936C133.922 72.3002 133.673 72.0662 133.35 71.8915C133.027 71.7135 132.645 71.6245 132.203 71.6245H129.711V75.1449ZM129.711 70.5565H131.985C132.354 70.5565 132.687 70.484 132.984 70.3389C133.284 70.1939 133.521 69.9895 133.696 69.7258C133.874 69.4621 133.963 69.1523 133.963 68.7963C133.963 68.3513 133.808 67.9739 133.498 67.664C133.188 67.3509 132.697 67.1943 132.025 67.1943H129.711V70.5565ZM140.566 76.3909C139.835 76.3909 139.203 76.2294 138.673 75.9063C138.145 75.58 137.738 75.1251 137.451 74.5417C137.168 73.9549 137.026 73.2726 137.026 72.4947C137.026 71.7168 137.168 71.0312 137.451 70.4378C137.738 69.8412 138.137 69.3764 138.648 69.0435C139.162 68.7073 139.762 68.5392 140.448 68.5392C140.843 68.5392 141.234 68.6051 141.619 68.7369C142.005 68.8688 142.356 69.0831 142.673 69.3797C142.989 69.6731 143.241 70.062 143.429 70.5466C143.617 71.0312 143.711 71.6278 143.711 72.3365V72.8309H137.857V71.8223H142.524C142.524 71.3937 142.439 71.0114 142.267 70.6752C142.099 70.3389 141.858 70.0736 141.545 69.8791C141.235 69.6846 140.87 69.5874 140.448 69.5874C139.983 69.5874 139.581 69.7028 139.241 69.9335C138.905 70.1609 138.646 70.4576 138.465 70.8235C138.284 71.1894 138.193 71.5816 138.193 72.0003V72.6727C138.193 73.2462 138.292 73.7324 138.49 74.1313C138.691 74.5268 138.969 74.8285 139.325 75.0361C139.681 75.2405 140.095 75.3427 140.566 75.3427C140.873 75.3427 141.15 75.2998 141.397 75.2141C141.647 75.1251 141.863 74.9933 142.045 74.8186C142.226 74.6406 142.366 74.4197 142.465 74.156L143.592 74.4725C143.474 74.8548 143.274 75.191 142.994 75.4811C142.714 75.7679 142.368 75.992 141.956 76.1536C141.544 76.3118 141.081 76.3909 140.566 76.3909ZM150.866 70.3389L149.817 70.6356C149.751 70.4609 149.654 70.2911 149.526 70.1263C149.4 69.9582 149.229 69.8198 149.011 69.711C148.794 69.6022 148.515 69.5478 148.176 69.5478C147.711 69.5478 147.324 69.655 147.014 69.8692C146.707 70.0802 146.554 70.3488 146.554 70.6752C146.554 70.9652 146.659 71.1943 146.87 71.3624C147.081 71.5305 147.411 71.6706 147.859 71.7827L148.987 72.0596C149.666 72.2244 150.172 72.4766 150.505 72.8161C150.837 73.1523 151.004 73.5858 151.004 74.1165C151.004 74.5516 150.879 74.9405 150.628 75.2833C150.381 75.6262 150.035 75.8964 149.59 76.0942C149.145 76.292 148.627 76.3909 148.037 76.3909C147.263 76.3909 146.622 76.2228 146.114 75.8866C145.606 75.5503 145.285 75.0592 145.15 74.4131L146.257 74.1362C146.363 74.545 146.562 74.8515 146.856 75.0559C147.152 75.2603 147.54 75.3625 148.018 75.3625C148.561 75.3625 148.993 75.2471 149.313 75.0163C149.636 74.7823 149.798 74.5021 149.798 74.1758C149.798 73.9121 149.705 73.6912 149.521 73.5132C149.336 73.3319 149.053 73.1968 148.67 73.1078L147.404 72.8111C146.709 72.6463 146.198 72.3909 145.872 72.0448C145.549 71.6954 145.387 71.2586 145.387 70.7345C145.387 70.306 145.507 69.9269 145.748 69.5973C145.992 69.2676 146.323 69.0089 146.742 68.821C147.164 68.6331 147.642 68.5392 148.176 68.5392C148.927 68.5392 149.517 68.704 149.946 69.0336C150.378 69.3632 150.684 69.7983 150.866 70.3389ZM156.063 68.6381V69.6269H152.128V68.6381H156.063ZM153.275 66.8185H154.442V74.0571C154.442 74.3868 154.489 74.634 154.585 74.7988C154.684 74.9603 154.809 75.0691 154.961 75.1251C155.116 75.1779 155.279 75.2042 155.45 75.2042C155.579 75.2042 155.684 75.1976 155.767 75.1845C155.849 75.168 155.915 75.1548 155.964 75.1449L156.202 76.1931C156.123 76.2228 156.012 76.2524 155.87 76.2821C155.729 76.3151 155.549 76.3316 155.332 76.3316C155.002 76.3316 154.679 76.2607 154.362 76.1189C154.049 75.9772 153.789 75.7613 153.581 75.4712C153.377 75.1812 153.275 74.8153 153.275 74.3736V66.8185ZM167.43 68.6381C167.371 68.137 167.131 67.7481 166.709 67.4712C166.287 67.1943 165.769 67.0559 165.156 67.0559C164.708 67.0559 164.316 67.1284 163.979 67.2734C163.646 67.4184 163.386 67.6179 163.198 67.8717C163.013 68.1255 162.921 68.4139 162.921 68.7369C162.921 69.0072 162.985 69.2396 163.114 69.4341C163.246 69.6253 163.414 69.7852 163.618 69.9137C163.823 70.039 164.037 70.1428 164.261 70.2252C164.485 70.3043 164.691 70.3686 164.879 70.418L165.908 70.6949C166.171 70.7642 166.465 70.8597 166.788 70.9817C167.114 71.1037 167.426 71.2701 167.722 71.4811C168.022 71.6888 168.269 71.9558 168.464 72.2821C168.658 72.6084 168.756 73.0089 168.756 73.4836C168.756 74.0308 168.612 74.5252 168.325 74.9669C168.042 75.4086 167.627 75.7597 167.079 76.0201C166.536 76.2805 165.875 76.4107 165.097 76.4107C164.372 76.4107 163.744 76.2936 163.213 76.0596C162.686 75.8256 162.27 75.4992 161.967 75.0806C161.667 74.662 161.497 74.1758 161.458 73.622H162.723C162.756 74.0044 162.885 74.3208 163.109 74.5713C163.337 74.8186 163.623 75.0032 163.969 75.1251C164.319 75.2438 164.695 75.3031 165.097 75.3031C165.565 75.3031 165.985 75.2273 166.358 75.0757C166.73 74.9208 167.025 74.7065 167.243 74.4329C167.46 74.156 167.569 73.833 167.569 73.4638C167.569 73.1276 167.475 72.854 167.287 72.643C167.099 72.4321 166.852 72.2607 166.545 72.1288C166.239 71.997 165.908 71.8816 165.552 71.7827L164.306 71.4267C163.515 71.1993 162.888 70.8746 162.427 70.4527C161.965 70.0307 161.735 69.4786 161.735 68.7963C161.735 68.2293 161.888 67.7349 162.194 67.313C162.504 66.8877 162.92 66.5581 163.44 66.3241C163.964 66.0867 164.55 65.9681 165.196 65.9681C165.848 65.9681 166.428 66.0851 166.936 66.3191C167.444 66.5499 167.846 66.8663 168.142 67.2685C168.442 67.6706 168.601 68.1271 168.617 68.6381H167.43ZM173.699 76.3909C173.013 76.3909 172.412 76.2277 171.894 75.9014C171.38 75.5751 170.978 75.1185 170.688 74.5318C170.401 73.9451 170.257 73.2594 170.257 72.4749C170.257 71.6838 170.401 70.9932 170.688 70.4032C170.978 69.8132 171.38 69.355 171.894 69.0287C172.412 68.7023 173.013 68.5392 173.699 68.5392C174.384 68.5392 174.984 68.7023 175.499 69.0287C176.016 69.355 176.418 69.8132 176.705 70.4032C176.995 70.9932 177.14 71.6838 177.14 72.4749C177.14 73.2594 176.995 73.9451 176.705 74.5318C176.418 75.1185 176.016 75.5751 175.499 75.9014C174.984 76.2277 174.384 76.3909 173.699 76.3909ZM173.699 75.3427C174.22 75.3427 174.648 75.2092 174.984 74.9422C175.321 74.6752 175.569 74.3241 175.731 73.889C175.892 73.4539 175.973 72.9825 175.973 72.4749C175.973 71.9673 175.892 71.4943 175.731 71.0559C175.569 70.6175 175.321 70.2631 174.984 69.9928C174.648 69.7225 174.22 69.5874 173.699 69.5874C173.178 69.5874 172.749 69.7225 172.413 69.9928C172.077 70.2631 171.828 70.6175 171.667 71.0559C171.505 71.4943 171.424 71.9673 171.424 72.4749C171.424 72.9825 171.505 73.4539 171.667 73.889C171.828 74.3241 172.077 74.6752 172.413 74.9422C172.749 75.2092 173.178 75.3427 173.699 75.3427ZM180.088 66.1065V76.2327H178.921V66.1065H180.088ZM187.012 73.1276V68.6381H188.178V76.2327H187.012V74.9471H186.932C186.754 75.3328 186.478 75.6608 186.102 75.9311C185.726 76.1981 185.251 76.3316 184.678 76.3316C184.203 76.3316 183.781 76.2277 183.412 76.0201C183.043 75.8091 182.753 75.4927 182.542 75.0707C182.331 74.6455 182.225 74.1099 182.225 73.4638V68.6381H183.392V73.3847C183.392 73.9385 183.547 74.3802 183.857 74.7098C184.17 75.0394 184.569 75.2042 185.054 75.2042C185.344 75.2042 185.639 75.1301 185.939 74.9817C186.242 74.8334 186.496 74.606 186.7 74.2994C186.908 73.9929 187.012 73.6022 187.012 73.1276ZM193.619 68.6381V69.6269H189.683V68.6381H193.619ZM190.83 66.8185H191.997V74.0571C191.997 74.3868 192.045 74.634 192.14 74.7988C192.239 74.9603 192.364 75.0691 192.516 75.1251C192.671 75.1779 192.834 75.2042 193.005 75.2042C193.134 75.2042 193.239 75.1976 193.322 75.1845C193.404 75.168 193.47 75.1548 193.52 75.1449L193.757 76.1931C193.678 76.2228 193.567 76.2524 193.426 76.2821C193.284 76.3151 193.104 76.3316 192.887 76.3316C192.557 76.3316 192.234 76.2607 191.918 76.1189C191.605 75.9772 191.344 75.7613 191.136 75.4712C190.932 75.1812 190.83 74.8153 190.83 74.3736V66.8185ZM195.374 76.2327V68.6381H196.541V76.2327H195.374ZM195.967 67.3723C195.74 67.3723 195.544 67.2948 195.379 67.1399C195.217 66.985 195.136 66.7987 195.136 66.5812C195.136 66.3636 195.217 66.1774 195.379 66.0225C195.544 65.8675 195.74 65.7901 195.967 65.7901C196.195 65.7901 196.389 65.8675 196.551 66.0225C196.715 66.1774 196.798 66.3636 196.798 66.5812C196.798 66.7987 196.715 66.985 196.551 67.1399C196.389 67.2948 196.195 67.3723 195.967 67.3723ZM201.763 76.3909C201.078 76.3909 200.476 76.2277 199.958 75.9014C199.444 75.5751 199.042 75.1185 198.752 74.5318C198.465 73.9451 198.322 73.2594 198.322 72.4749C198.322 71.6838 198.465 70.9932 198.752 70.4032C199.042 69.8132 199.444 69.355 199.958 69.0287C200.476 68.7023 201.078 68.5392 201.763 68.5392C202.449 68.5392 203.049 68.7023 203.563 69.0287C204.08 69.355 204.483 69.8132 204.769 70.4032C205.059 70.9932 205.204 71.6838 205.204 72.4749C205.204 73.2594 205.059 73.9451 204.769 74.5318C204.483 75.1185 204.08 75.5751 203.563 75.9014C203.049 76.2277 202.449 76.3909 201.763 76.3909ZM201.763 75.3427C202.284 75.3427 202.713 75.2092 203.049 74.9422C203.385 74.6752 203.634 74.3241 203.795 73.889C203.957 73.4539 204.038 72.9825 204.038 72.4749C204.038 71.9673 203.957 71.4943 203.795 71.0559C203.634 70.6175 203.385 70.2631 203.049 69.9928C202.713 69.7225 202.284 69.5874 201.763 69.5874C201.242 69.5874 200.814 69.7225 200.478 69.9928C200.141 70.2631 199.893 70.6175 199.731 71.0559C199.57 71.4943 199.489 71.9673 199.489 72.4749C199.489 72.9825 199.57 73.4539 199.731 73.889C199.893 74.3241 200.141 74.6752 200.478 74.9422C200.814 75.2092 201.242 75.3427 201.763 75.3427ZM208.153 71.664V76.2327H206.986V68.6381H208.113V69.8247H208.212C208.39 69.4391 208.66 69.1292 209.023 68.8952C209.385 68.6578 209.853 68.5392 210.427 68.5392C210.941 68.5392 211.391 68.6447 211.777 68.8556C212.163 69.0633 212.462 69.3797 212.677 69.8049C212.891 70.2269 212.998 70.7609 212.998 71.4069V76.2327H211.831V71.486C211.831 70.8894 211.676 70.4246 211.366 70.0917C211.057 69.7555 210.631 69.5874 210.091 69.5874C209.718 69.5874 209.385 69.6681 209.092 69.8297C208.802 69.9912 208.573 70.2269 208.405 70.5367C208.237 70.8466 208.153 71.2223 208.153 71.664ZM219.897 76.3118C219.653 76.3118 219.444 76.2244 219.269 76.0497C219.094 75.875 219.007 75.6657 219.007 75.4218C219.007 75.1779 219.094 74.9685 219.269 74.7938C219.444 74.6191 219.653 74.5318 219.897 74.5318C220.141 74.5318 220.35 74.6191 220.525 74.7938C220.699 74.9685 220.787 75.1779 220.787 75.4218C220.787 75.5833 220.746 75.7316 220.663 75.8668C220.584 76.0019 220.477 76.1107 220.342 76.1931C220.21 76.2722 220.062 76.3118 219.897 76.3118ZM223.731 76.3118C223.487 76.3118 223.278 76.2244 223.103 76.0497C222.929 75.875 222.841 75.6657 222.841 75.4218C222.841 75.1779 222.929 74.9685 223.103 74.7938C223.278 74.6191 223.487 74.5318 223.731 74.5318C223.975 74.5318 224.184 74.6191 224.359 74.7938C224.534 74.9685 224.621 75.1779 224.621 75.4218C224.621 75.5833 224.58 75.7316 224.498 75.8668C224.418 76.0019 224.311 76.1107 224.176 76.1931C224.044 76.2722 223.896 76.3118 223.731 76.3118ZM227.566 76.3118C227.322 76.3118 227.112 76.2244 226.938 76.0497C226.763 75.875 226.676 75.6657 226.676 75.4218C226.676 75.1779 226.763 74.9685 226.938 74.7938C227.112 74.6191 227.322 74.5318 227.566 74.5318C227.809 74.5318 228.019 74.6191 228.194 74.7938C228.368 74.9685 228.456 75.1779 228.456 75.4218C228.456 75.5833 228.414 75.7316 228.332 75.8668C228.253 76.0019 228.146 76.1107 228.011 76.1931C227.879 76.2722 227.73 76.3118 227.566 76.3118Z" fill="#2DD705"/>
<path d="M52.2776 52.6978C52.1508 52.4585 51.8541 52.3671 51.6148 52.4939L49.2593 53.7413C49.02 53.868 48.9288 54.1648 49.0554 54.4041C49.1822 54.6435 49.4789 54.7348 49.7184 54.608L52.0738 53.3606C52.3131 53.2338 52.4045 52.9371 52.2777 52.6976L52.2776 52.6978Z" fill="black"/>
<path d="M45.7267 49.8438L47.1986 47.6218C47.3481 47.3959 47.2865 47.0917 47.0606 46.9422C46.8347 46.7926 46.5305 46.8545 46.381 47.0802L44.9091 49.3024C44.8063 49.4575 44.8034 49.6496 44.8846 49.803C44.9217 49.8731 44.9762 49.9351 45.0471 49.982C45.2729 50.1315 45.5771 50.0697 45.7267 49.8438Z" fill="black"/>
<path d="M54.106 60.2473C54.1092 59.9765 53.8922 59.7543 53.6215 59.7513L50.9564 59.72C50.6855 59.7168 50.4636 59.9336 50.4603 60.2045C50.4593 60.2893 50.4799 60.3694 50.5171 60.4394C50.5985 60.593 50.7589 60.6984 50.945 60.7006L53.6101 60.7319C53.881 60.7351 54.1029 60.5181 54.1062 60.2473H54.106Z" fill="black"/>
<path d="M52.1005 67.7521C52.2329 67.5157 52.1483 67.2168 51.9122 67.0846L49.5867 65.7821C49.3503 65.6497 49.0515 65.734 48.9191 65.9704C48.8347 66.1213 48.8384 66.2977 48.9139 66.44C48.9565 66.5205 49.0221 66.5902 49.1074 66.638L51.433 67.9404C51.6693 68.0726 51.9681 67.9884 52.1005 67.7521Z" fill="black"/>
<path d="M18.0637 64.3996C19.764 64.3996 21.1424 63.0212 21.1424 61.3209C21.1424 59.6206 19.764 58.2422 18.0637 58.2422C16.3633 58.2422 14.985 59.6206 14.985 61.3209C14.985 63.0212 16.3633 64.3996 18.0637 64.3996Z" fill="#001857"/>
<path d="M39.8522 45.4536C41.5526 45.4536 42.931 44.0752 42.931 42.3749C42.931 40.6745 41.5526 39.2961 39.8522 39.2961C38.1519 39.2961 36.7735 40.6745 36.7735 42.3749C36.7735 44.0752 38.1519 45.4536 39.8522 45.4536Z" fill="#001857"/>
<path d="M33.221 83.8196C34.9213 83.8196 36.2997 82.4412 36.2997 80.7408C36.2997 79.0405 34.9213 77.6621 33.221 77.6621C31.5206 77.6621 30.1422 79.0405 30.1422 80.7408C30.1422 82.4412 31.5206 83.8196 33.221 83.8196Z" fill="#001857"/>
</svg>
